<?xml version="1.0" encoding="ISO8859-1"?>
<svg xmlns="http://www.w3.org/2000/svg" xmlns:xlink="http://www.w3.org/1999/xlink" width="288px" height="252px" viewBox="0 0 288 252" version="1.1" id="Fig:dens">
  <metadata xmlns:gridsvg="http://www.stat.auckland.ac.nz/~paul/R/gridSVG/">
    <gridsvg:generator name="gridSVG" version="1.7-2" time="2020-07-31 15:08:22"/>
    <gridsvg:argument name="name" value="arrayQualityMetrics report for gse/dens.svg"/>
    <gridsvg:argument name="exportCoords" value="none"/>
    <gridsvg:argument name="exportMappings" value="none"/>
    <gridsvg:argument name="exportJS" value="none"/>
    <gridsvg:argument name="res" value="72"/>
    <gridsvg:argument name="prefix" value="Fig:dens"/>
    <gridsvg:argument name="addClasses" value="FALSE"/>
    <gridsvg:argument name="indent" value="TRUE"/>
    <gridsvg:argument name="htmlWrapper" value="FALSE"/>
    <gridsvg:argument name="usePaths" value="none"/>
    <gridsvg:argument name="uniqueNames" value="TRUE"/>
    <gridsvg:separator name="id.sep" value="."/>
    <gridsvg:separator name="gPath.sep" value="::"/>
    <gridsvg:separator name="vpPath.sep" value="::"/>
  </metadata>
  <g transform="translate(0, 252) scale(1, -1)">
    <g id="Fig:densgridSVG" fill="none" stroke="rgb(0,0,0)" stroke-dasharray="none" stroke-width="0.75" font-size="12" font-family="Helvetica, Arial, FreeSans, Liberation Sans, Nimbus Sans L, sans-serif" opacity="1" stroke-linecap="round" stroke-linejoin="round" stroke-miterlimit="10" stroke-opacity="1" fill-opacity="0" font-weight="normal" font-style="normal">
      <g id="Fig:densplot_01.background.1">
        <rect id="Fig:densplot_01.background.1.1" x="0" y="0" width="288" height="252" transform="" fill="none" stroke="none" stroke-opacity="0" fill-opacity="0"/>
      </g>
      <g id="Fig:densplot_01.toplevel.vp.1" font-size="12">
        <g id="Fig:densplot_01.ylab.vp.1">
          <g id="Fig:densplot_01.ylab.1">
            <g id="Fig:densplot_01.ylab.1.1" transform="translate(10.31, 138.09)" stroke-width="0.1">
              <g id="Fig:densplot_01.ylab.1.1.scale" transform="scale(1, -1)">
                <text x="0" y="0" id="Fig:densplot_01.ylab.1.1.text" transform="rotate(-90)" text-anchor="middle" opacity="1" stroke="rgb(0,0,0)" fill="rgb(0,0,0)" stroke-opacity="1" fill-opacity="1" font-size="12" font-weight="normal" font-style="normal">
                  <tspan id="Fig:densplot_01.ylab.1.1.tspan.1" dy="4.31" x="0">Density</tspan>
                </text>
              </g>
            </g>
          </g>
        </g>
        <g id="Fig:densplot_01.figure.vp.1"/>
        <defs>
          <clipPath id="Fig:densplot_01.panel.1.1.vp.1.clipPath">
            <rect x="44.8" y="42.19" width="231.2" height="191.81" fill="none" stroke="none"/>
          </clipPath>
        </defs>
        <g id="Fig:densplot_01.panel.1.1.vp.1" clip-path="url(#Fig:densplot_01.panel.1.1.vp.1.clipPath)"/>
        <g id="Fig:densplot_01.strip.1.1.off.vp.1"/>
        <g id="Fig:densplot_01.strip.left.1.1.off.vp.1">
          <g id="Fig:densplot_01.ticks.left.panel.1.1.1">
            <polyline id="Fig:densplot_01.ticks.left.panel.1.1.1.1" points="44.8,53.95 39.13,53.95" stroke="rgb(0,0,0)" opacity="1" stroke-dasharray="none" stroke-width="0.75" stroke-opacity="1" fill="none"/>
            <polyline id="Fig:densplot_01.ticks.left.panel.1.1.1.2" points="44.8,85.04 39.13,85.04" stroke="rgb(0,0,0)" opacity="1" stroke-dasharray="none" stroke-width="0.75" stroke-opacity="1" fill="none"/>
            <polyline id="Fig:densplot_01.ticks.left.panel.1.1.1.3" points="44.8,116.13 39.13,116.13" stroke="rgb(0,0,0)" opacity="1" stroke-dasharray="none" stroke-width="0.75" stroke-opacity="1" fill="none"/>
            <polyline id="Fig:densplot_01.ticks.left.panel.1.1.1.4" points="44.8,147.22 39.13,147.22" stroke="rgb(0,0,0)" opacity="1" stroke-dasharray="none" stroke-width="0.75" stroke-opacity="1" fill="none"/>
            <polyline id="Fig:densplot_01.ticks.left.panel.1.1.1.5" points="44.8,178.31 39.13,178.31" stroke="rgb(0,0,0)" opacity="1" stroke-dasharray="none" stroke-width="0.75" stroke-opacity="1" fill="none"/>
            <polyline id="Fig:densplot_01.ticks.left.panel.1.1.1.6" points="44.8,209.41 39.13,209.41" stroke="rgb(0,0,0)" opacity="1" stroke-dasharray="none" stroke-width="0.75" stroke-opacity="1" fill="none"/>
          </g>
          <g id="Fig:densplot_01.ticklabels.left.panel.1.1.1">
            <g id="Fig:densplot_01.ticklabels.left.panel.1.1.1.1" transform="translate(33.47, 53.95)" stroke-width="0.1">
              <g id="Fig:densplot_01.ticklabels.left.panel.1.1.1.1.scale" transform="scale(1, -1)">
                <text x="0" y="0" id="Fig:densplot_01.ticklabels.left.panel.1.1.1.1.text" transform="rotate(-90)" text-anchor="middle" stroke="rgb(0,0,0)" opacity="1" fill="rgb(0,0,0)" stroke-opacity="1" fill-opacity="1" font-size="9.6" font-weight="normal" font-style="normal">
                  <tspan id="Fig:densplot_01.ticklabels.left.panel.1.1.1.1.tspan.1" dy="0" x="0">0.00</tspan>
                </text>
              </g>
            </g>
            <g id="Fig:densplot_01.ticklabels.left.panel.1.1.1.2" transform="translate(33.47, 85.04)" stroke-width="0.1">
              <g id="Fig:densplot_01.ticklabels.left.panel.1.1.1.2.scale" transform="scale(1, -1)">
                <text x="0" y="0" id="Fig:densplot_01.ticklabels.left.panel.1.1.1.2.text" transform="rotate(-90)" text-anchor="middle" stroke="rgb(0,0,0)" opacity="1" fill="rgb(0,0,0)" stroke-opacity="1" fill-opacity="1" font-size="9.6" font-weight="normal" font-style="normal">
                  <tspan id="Fig:densplot_01.ticklabels.left.panel.1.1.1.2.tspan.1" dy="0" x="0">0.05</tspan>
                </text>
              </g>
            </g>
            <g id="Fig:densplot_01.ticklabels.left.panel.1.1.1.3" transform="translate(33.47, 116.13)" stroke-width="0.1">
              <g id="Fig:densplot_01.ticklabels.left.panel.1.1.1.3.scale" transform="scale(1, -1)">
                <text x="0" y="0" id="Fig:densplot_01.ticklabels.left.panel.1.1.1.3.text" transform="rotate(-90)" text-anchor="middle" stroke="rgb(0,0,0)" opacity="1" fill="rgb(0,0,0)" stroke-opacity="1" fill-opacity="1" font-size="9.6" font-weight="normal" font-style="normal">
                  <tspan id="Fig:densplot_01.ticklabels.left.panel.1.1.1.3.tspan.1" dy="0" x="0">0.10</tspan>
                </text>
              </g>
            </g>
            <g id="Fig:densplot_01.ticklabels.left.panel.1.1.1.4" transform="translate(33.47, 147.22)" stroke-width="0.1">
              <g id="Fig:densplot_01.ticklabels.left.panel.1.1.1.4.scale" transform="scale(1, -1)">
                <text x="0" y="0" id="Fig:densplot_01.ticklabels.left.panel.1.1.1.4.text" transform="rotate(-90)" text-anchor="middle" stroke="rgb(0,0,0)" opacity="1" fill="rgb(0,0,0)" stroke-opacity="1" fill-opacity="1" font-size="9.6" font-weight="normal" font-style="normal">
                  <tspan id="Fig:densplot_01.ticklabels.left.panel.1.1.1.4.tspan.1" dy="0" x="0">0.15</tspan>
                </text>
              </g>
            </g>
            <g id="Fig:densplot_01.ticklabels.left.panel.1.1.1.5" transform="translate(33.47, 178.31)" stroke-width="0.1">
              <g id="Fig:densplot_01.ticklabels.left.panel.1.1.1.5.scale" transform="scale(1, -1)">
                <text x="0" y="0" id="Fig:densplot_01.ticklabels.left.panel.1.1.1.5.text" transform="rotate(-90)" text-anchor="middle" stroke="rgb(0,0,0)" opacity="1" fill="rgb(0,0,0)" stroke-opacity="1" fill-opacity="1" font-size="9.6" font-weight="normal" font-style="normal">
                  <tspan id="Fig:densplot_01.ticklabels.left.panel.1.1.1.5.tspan.1" dy="0" x="0">0.20</tspan>
                </text>
              </g>
            </g>
            <g id="Fig:densplot_01.ticklabels.left.panel.1.1.1.6" transform="translate(33.47, 209.41)" stroke-width="0.1">
              <g id="Fig:densplot_01.ticklabels.left.panel.1.1.1.6.scale" transform="scale(1, -1)">
                <text x="0" y="0" id="Fig:densplot_01.ticklabels.left.panel.1.1.1.6.text" transform="rotate(-90)" text-anchor="middle" stroke="rgb(0,0,0)" opacity="1" fill="rgb(0,0,0)" stroke-opacity="1" fill-opacity="1" font-size="9.6" font-weight="normal" font-style="normal">
                  <tspan id="Fig:densplot_01.ticklabels.left.panel.1.1.1.6.tspan.1" dy="0" x="0">0.25</tspan>
                </text>
              </g>
            </g>
          </g>
        </g>
        <g id="Fig:densplot_01.panel.1.1.off.vp.1">
          <g id="Fig:densplot_01.ticks.bottom.panel.1.1.1">
            <polyline id="Fig:densplot_01.ticks.bottom.panel.1.1.1.1" points="51.75,42.19 51.75,36.52" stroke="rgb(0,0,0)" opacity="1" stroke-dasharray="none" stroke-width="0.75" stroke-opacity="1" fill="none"/>
            <polyline id="Fig:densplot_01.ticks.bottom.panel.1.1.1.2" points="110.14,42.19 110.14,36.52" stroke="rgb(0,0,0)" opacity="1" stroke-dasharray="none" stroke-width="0.75" stroke-opacity="1" fill="none"/>
            <polyline id="Fig:densplot_01.ticks.bottom.panel.1.1.1.3" points="168.54,42.19 168.54,36.52" stroke="rgb(0,0,0)" opacity="1" stroke-dasharray="none" stroke-width="0.75" stroke-opacity="1" fill="none"/>
            <polyline id="Fig:densplot_01.ticks.bottom.panel.1.1.1.4" points="226.93,42.19 226.93,36.52" stroke="rgb(0,0,0)" opacity="1" stroke-dasharray="none" stroke-width="0.75" stroke-opacity="1" fill="none"/>
          </g>
          <g id="Fig:densplot_01.ticklabels.bottom.panel.1.1.1">
            <g id="Fig:densplot_01.ticklabels.bottom.panel.1.1.1.1" transform="translate(51.75, 30.85)" stroke-width="0.1">
              <g id="Fig:densplot_01.ticklabels.bottom.panel.1.1.1.1.scale" transform="scale(1, -1)">
                <text x="0" y="0" id="Fig:densplot_01.ticklabels.bottom.panel.1.1.1.1.text" text-anchor="middle" stroke="rgb(0,0,0)" opacity="1" fill="rgb(0,0,0)" stroke-opacity="1" fill-opacity="1" font-size="9.6" font-weight="normal" font-style="normal">
                  <tspan id="Fig:densplot_01.ticklabels.bottom.panel.1.1.1.1.tspan.1" dy="7.18" x="0">-5</tspan>
                </text>
              </g>
            </g>
            <g id="Fig:densplot_01.ticklabels.bottom.panel.1.1.1.2" transform="translate(110.14, 30.85)" stroke-width="0.1">
              <g id="Fig:densplot_01.ticklabels.bottom.panel.1.1.1.2.scale" transform="scale(1, -1)">
                <text x="0" y="0" id="Fig:densplot_01.ticklabels.bottom.panel.1.1.1.2.text" text-anchor="middle" stroke="rgb(0,0,0)" opacity="1" fill="rgb(0,0,0)" stroke-opacity="1" fill-opacity="1" font-size="9.6" font-weight="normal" font-style="normal">
                  <tspan id="Fig:densplot_01.ticklabels.bottom.panel.1.1.1.2.tspan.1" dy="7.18" x="0">0</tspan>
                </text>
              </g>
            </g>
            <g id="Fig:densplot_01.ticklabels.bottom.panel.1.1.1.3" transform="translate(168.54, 30.85)" stroke-width="0.1">
              <g id="Fig:densplot_01.ticklabels.bottom.panel.1.1.1.3.scale" transform="scale(1, -1)">
                <text x="0" y="0" id="Fig:densplot_01.ticklabels.bottom.panel.1.1.1.3.text" text-anchor="middle" stroke="rgb(0,0,0)" opacity="1" fill="rgb(0,0,0)" stroke-opacity="1" fill-opacity="1" font-size="9.6" font-weight="normal" font-style="normal">
                  <tspan id="Fig:densplot_01.ticklabels.bottom.panel.1.1.1.3.tspan.1" dy="7.18" x="0">5</tspan>
                </text>
              </g>
            </g>
            <g id="Fig:densplot_01.ticklabels.bottom.panel.1.1.1.4" transform="translate(226.93, 30.85)" stroke-width="0.1">
              <g id="Fig:densplot_01.ticklabels.bottom.panel.1.1.1.4.scale" transform="scale(1, -1)">
                <text x="0" y="0" id="Fig:densplot_01.ticklabels.bottom.panel.1.1.1.4.text" text-anchor="middle" stroke="rgb(0,0,0)" opacity="1" fill="rgb(0,0,0)" stroke-opacity="1" fill-opacity="1" font-size="9.6" font-weight="normal" font-style="normal">
                  <tspan id="Fig:densplot_01.ticklabels.bottom.panel.1.1.1.4.tspan.1" dy="7.18" x="0">10</tspan>
                </text>
              </g>
            </g>
          </g>
        </g>
        <defs>
          <clipPath id="Fig:densplot_01.panel.1.1.vp.2.clipPath">
            <rect x="44.8" y="42.19" width="231.2" height="191.81" fill="none" stroke="none"/>
          </clipPath>
        </defs>
        <g id="Fig:densplot_01.panel.1.1.vp.2" clip-path="url(#Fig:densplot_01.panel.1.1.vp.2.clipPath)">
          <g id="Fig:densplot_01.xyplot.lines.group.1.panel.1.1.1">
            <polyline id="Fig:densplot_01.xyplot.lines.group.1.panel.1.1.1.1" points="59,53.97 59.4,53.97 59.79,53.97 60.19,53.98 60.59,53.99 60.98,53.99 61.38,54 61.78,54.01 62.18,54.02 62.57,54.04 62.97,54.05 63.37,54.07 63.76,54.09 64.16,54.12 64.56,54.15 64.95,54.18 65.35,54.22 65.75,54.26 66.14,54.3 66.54,54.36 66.94,54.42 67.33,54.48 67.73,54.55 68.13,54.64 68.53,54.73 68.92,54.83 69.32,54.94 69.72,55.06 70.11,55.19 70.51,55.34 70.91,55.5 71.3,55.68 71.7,55.86 72.1,56.06 72.49,56.28 72.89,56.52 73.29,56.77 73.68,57.04 74.08,57.33 74.48,57.63 74.88,57.95 75.27,58.29 75.67,58.65 76.07,59.02 76.46,59.42 76.86,59.83 77.26,60.26 77.65,60.7 78.05,61.16 78.45,61.64 78.84,62.13 79.24,62.63 79.64,63.15 80.03,63.68 80.43,64.23 80.83,64.78 81.23,65.34 81.62,65.9 82.02,66.48 82.42,67.06 82.81,67.64 83.21,68.22 83.61,68.81 84,69.4 84.4,69.98 84.8,70.57 85.19,71.15 85.59,71.72 85.99,72.3 86.38,72.86 86.78,73.42 87.18,73.97 87.58,74.51 87.97,75.04 88.37,75.56 88.77,76.07 89.16,76.57 89.56,77.06 89.96,77.53 90.35,78 90.75,78.45 91.15,78.88 91.54,79.31 91.94,79.72 92.34,80.11 92.73,80.5 93.13,80.87 93.53,81.22 93.93,81.57 94.32,81.89 94.72,82.21 95.12,82.51 95.51,82.8 95.91,83.08 96.31,83.34 96.7,83.58 97.1,83.82 97.5,84.04 97.89,84.26 98.29,84.45 98.69,84.64 99.08,84.81 99.48,84.98 99.88,85.13 100.28,85.27 100.67,85.4 101.07,85.51 101.47,85.62 101.86,85.72 102.26,85.8 102.66,85.88 103.05,85.95 103.45,86 103.85,86.05 104.24,86.09 104.64,86.12 105.04,86.14 105.43,86.15 105.83,86.15 106.23,86.15 106.63,86.14 107.02,86.12 107.42,86.09 107.82,86.05 108.21,86.01 108.61,85.96 109.01,85.9 109.4,85.84 109.8,85.77 110.2,85.7 110.59,85.62 110.99,85.53 111.39,85.44 111.78,85.35 112.18,85.25 112.58,85.15 112.98,85.04 113.37,84.94 113.77,84.83 114.17,84.72 114.56,84.61 114.96,84.5 115.36,84.4 115.75,84.29 116.15,84.19 116.55,84.09 116.94,83.99 117.34,83.9 117.74,83.81 118.13,83.73 118.53,83.66 118.93,83.6 119.33,83.54 119.72,83.5 120.12,83.46 120.52,83.44 120.91,83.42 121.31,83.42 121.71,83.43 122.1,83.46 122.5,83.5 122.9,83.55 123.29,83.62 123.69,83.7 124.09,83.8 124.48,83.92 124.88,84.05 125.28,84.2 125.68,84.37 126.07,84.56 126.47,84.76 126.87,84.98 127.26,85.21 127.66,85.46 128.06,85.73 128.45,86.01 128.85,86.31 129.25,86.62 129.64,86.95 130.04,87.29 130.44,87.64 130.83,88 131.23,88.37 131.63,88.76 132.03,89.15 132.42,89.54 132.82,89.94 133.22,90.35 133.61,90.76 134.01,91.17 134.41,91.57 134.8,91.98 135.2,92.38 135.6,92.78 135.99,93.17 136.39,93.55 136.79,93.92 137.18,94.28 137.58,94.63 137.98,94.96 138.38,95.28 138.77,95.58 139.17,95.86 139.57,96.12 139.96,96.36 140.36,96.58 140.76,96.78 141.15,96.95 141.55,97.1 141.95,97.23 142.34,97.33 142.74,97.4 143.14,97.44 143.53,97.47 143.93,97.46 144.33,97.42 144.73,97.36 145.12,97.28 145.52,97.17 145.92,97.02 146.31,96.85 146.71,96.66 147.11,96.44 147.5,96.2 147.9,95.93 148.3,95.64 148.69,95.32 149.09,94.98 149.49,94.62 149.88,94.23 150.28,93.82 150.68,93.39 151.08,92.95 151.47,92.48 151.87,91.99 152.27,91.48 152.66,90.96 153.06,90.42 153.46,89.87 153.85,89.3 154.25,88.71 154.65,88.11 155.04,87.5 155.44,86.88 155.84,86.25 156.23,85.6 156.63,84.96 157.03,84.3 157.43,83.63 157.82,82.96 158.22,82.29 158.62,81.61 159.01,80.93 159.41,80.25 159.81,79.56 160.2,78.88 160.6,78.21 161,77.53 161.39,76.86 161.79,76.19 162.19,75.53 162.58,74.88 162.98,74.24 163.38,73.6 163.78,72.97 164.17,72.36 164.57,71.75 164.97,71.16 165.36,70.58 165.76,70.01 166.16,69.45 166.55,68.92 166.95,68.39 167.35,67.88 167.74,67.38 168.14,66.89 168.54,66.43 168.93,65.98 169.33,65.54 169.73,65.12 170.13,64.71 170.52,64.32 170.92,63.95 171.32,63.59 171.71,63.24 172.11,62.92 172.51,62.6 172.9,62.3 173.3,62.02 173.7,61.75 174.09,61.5 174.49,61.26 174.89,61.03 175.28,60.82 175.68,60.62 176.08,60.43 176.48,60.26 176.87,60.1 177.27,59.96 177.67,59.83 178.06,59.71 178.46,59.6 178.86,59.5 179.25,59.42 179.65,59.35 180.05,59.29 180.44,59.25 180.84,59.21 181.24,59.19 181.63,59.18 182.03,59.18 182.43,59.19 182.83,59.21 183.22,59.25 183.62,59.29 184.02,59.35 184.41,59.42 184.81,59.5 185.21,59.6 185.6,59.71 186,59.82 186.4,59.95 186.79,60.1 187.19,60.26 187.59,60.43 187.98,60.61 188.38,60.82 188.78,61.03 189.18,61.27 189.57,61.51 189.97,61.78 190.37,62.06 190.76,62.36 191.16,62.68 191.56,63.02 191.95,63.39 192.35,63.77 192.75,64.18 193.14,64.62 193.54,65.07 193.94,65.56 194.33,66.08 194.73,66.63 195.13,67.2 195.53,67.81 195.92,68.46 196.32,69.15 196.72,69.87 197.11,70.63 197.51,71.43 197.91,72.29 198.3,73.18 198.7,74.13 199.1,75.12 199.49,76.17 199.89,77.29 200.29,78.45 200.68,79.67 201.08,80.96 201.48,82.32 201.88,83.74 202.27,85.23 202.67,86.79 203.07,88.43 203.46,90.15 203.86,91.95 204.26,93.82 204.65,95.77 205.05,97.83 205.45,99.96 205.84,102.18 206.24,104.48 206.64,106.87 207.03,109.36 207.43,111.93 207.83,114.59 208.23,117.33 208.62,120.16 209.02,123.09 209.42,126.09 209.81,129.16 210.21,132.3 210.61,135.54 211,138.83 211.4,142.18 211.8,145.58 212.19,149.04 212.59,152.54 212.99,156.07 213.38,159.62 213.78,163.19 214.18,166.76 214.58,170.33 214.97,173.88 215.37,177.4 215.77,180.89 216.16,184.31 216.56,187.67 216.96,190.96 217.35,194.16 217.75,197.25 218.15,200.2 218.54,203.03 218.94,205.73 219.34,208.27 219.73,210.61 220.13,212.77 220.53,214.74 220.93,216.52 221.32,218.08 221.72,219.37 222.12,220.43 222.51,221.27 222.91,221.87 223.31,222.19 223.7,222.22 224.1,222.01 224.5,221.55 224.89,220.84 225.29,219.8 225.69,218.51 226.08,216.97 226.48,215.2 226.88,213.18 227.28,210.87 227.67,208.35 228.07,205.62 228.47,202.7 228.86,199.55 229.26,196.21 229.66,192.71 230.05,189.06 230.45,185.29 230.85,181.35 231.24,177.32 231.64,173.21 232.04,169.02 232.43,164.77 232.83,160.48 233.23,156.16 233.63,151.84 234.02,147.51 234.42,143.22 234.82,138.96 235.21,134.75 235.61,130.59 236.01,126.5 236.4,122.52 236.8,118.62 237.2,114.82 237.59,111.13 237.99,107.55 238.39,104.12 238.78,100.81 239.18,97.62 239.58,94.55 239.98,91.64 240.37,88.88 240.77,86.25 241.17,83.74 241.56,81.36 241.96,79.16 242.36,77.07 242.75,75.11 243.15,73.26 243.55,71.55 243.94,69.96 244.34,68.49 244.74,67.11 245.13,65.83 245.53,64.67 245.93,63.6 246.33,62.62 246.72,61.71 247.12,60.88 247.52,60.14 247.91,59.46 248.31,58.84 248.71,58.28 249.1,57.78 249.5,57.33 249.9,56.93 250.29,56.56 250.69,56.23 251.09,55.95 251.48,55.7 251.88,55.47 252.28,55.27 252.68,55.09 253.07,54.94 253.47,54.8 253.87,54.68 254.26,54.57 254.66,54.48 255.06,54.41 255.45,54.34 255.85,54.28 256.25,54.23 256.64,54.19 257.04,54.15 257.44,54.12 257.83,54.09 258.23,54.07 258.63,54.05 259.03,54.03 259.42,54.02 259.82,54 260.22,53.99 260.61,53.99 261.01,53.98 261.41,53.97 261.8,53.97" stroke-dasharray="none" stroke="rgb(31,120,180)" stroke-width="0.75" opacity="1" stroke-opacity="1" fill="none"/>
          </g>
          <g id="Fig:densplot_01.xyplot.lines.group.2.panel.1.1.1">
            <polyline id="Fig:densplot_01.xyplot.lines.group.2.panel.1.1.1.1" points="59,53.97 59.4,53.97 59.79,53.97 60.19,53.98 60.59,53.99 60.98,53.99 61.38,54 61.78,54.01 62.18,54.02 62.57,54.04 62.97,54.05 63.37,54.07 63.76,54.09 64.16,54.12 64.56,54.15 64.95,54.18 65.35,54.22 65.75,54.26 66.14,54.3 66.54,54.36 66.94,54.42 67.33,54.48 67.73,54.55 68.13,54.64 68.53,54.73 68.92,54.83 69.32,54.94 69.72,55.06 70.11,55.19 70.51,55.34 70.91,55.5 71.3,55.68 71.7,55.86 72.1,56.06 72.49,56.28 72.89,56.52 73.29,56.77 73.68,57.04 74.08,57.33 74.48,57.63 74.88,57.95 75.27,58.29 75.67,58.65 76.07,59.02 76.46,59.42 76.86,59.83 77.26,60.26 77.65,60.7 78.05,61.16 78.45,61.64 78.84,62.13 79.24,62.63 79.64,63.15 80.03,63.68 80.43,64.23 80.83,64.78 81.23,65.34 81.62,65.9 82.02,66.48 82.42,67.06 82.81,67.64 83.21,68.22 83.61,68.81 84,69.4 84.4,69.98 84.8,70.57 85.19,71.15 85.59,71.72 85.99,72.3 86.38,72.86 86.78,73.42 87.18,73.97 87.58,74.51 87.97,75.04 88.37,75.56 88.77,76.07 89.16,76.57 89.56,77.06 89.96,77.53 90.35,78 90.75,78.45 91.15,78.88 91.54,79.31 91.94,79.72 92.34,80.11 92.73,80.5 93.13,80.87 93.53,81.22 93.93,81.57 94.32,81.89 94.72,82.21 95.12,82.51 95.51,82.8 95.91,83.08 96.31,83.34 96.7,83.58 97.1,83.82 97.5,84.04 97.89,84.26 98.29,84.45 98.69,84.64 99.08,84.81 99.48,84.98 99.88,85.13 100.28,85.27 100.67,85.4 101.07,85.51 101.47,85.62 101.86,85.72 102.26,85.8 102.66,85.88 103.05,85.95 103.45,86 103.85,86.05 104.24,86.09 104.64,86.12 105.04,86.14 105.43,86.15 105.83,86.15 106.23,86.15 106.63,86.14 107.02,86.12 107.42,86.09 107.82,86.05 108.21,86.01 108.61,85.96 109.01,85.9 109.4,85.84 109.8,85.77 110.2,85.7 110.59,85.62 110.99,85.53 111.39,85.44 111.78,85.35 112.18,85.25 112.58,85.15 112.98,85.04 113.37,84.94 113.77,84.83 114.17,84.72 114.56,84.61 114.96,84.5 115.36,84.4 115.75,84.29 116.15,84.19 116.55,84.09 116.94,83.99 117.34,83.9 117.74,83.81 118.13,83.73 118.53,83.66 118.93,83.6 119.33,83.54 119.72,83.5 120.12,83.46 120.52,83.44 120.91,83.42 121.31,83.42 121.71,83.43 122.1,83.46 122.5,83.5 122.9,83.55 123.29,83.62 123.69,83.7 124.09,83.8 124.48,83.92 124.88,84.05 125.28,84.2 125.68,84.37 126.07,84.56 126.47,84.76 126.87,84.98 127.26,85.21 127.66,85.46 128.06,85.73 128.45,86.01 128.85,86.31 129.25,86.62 129.64,86.95 130.04,87.29 130.44,87.64 130.83,88 131.23,88.37 131.63,88.76 132.03,89.15 132.42,89.54 132.82,89.94 133.22,90.35 133.61,90.76 134.01,91.17 134.41,91.57 134.8,91.98 135.2,92.38 135.6,92.78 135.99,93.17 136.39,93.55 136.79,93.92 137.18,94.28 137.58,94.63 137.98,94.96 138.38,95.28 138.77,95.58 139.17,95.86 139.57,96.12 139.96,96.36 140.36,96.58 140.76,96.78 141.15,96.95 141.55,97.1 141.95,97.23 142.34,97.33 142.74,97.4 143.14,97.44 143.53,97.47 143.93,97.46 144.33,97.42 144.73,97.36 145.12,97.28 145.52,97.17 145.92,97.02 146.31,96.85 146.71,96.66 147.11,96.44 147.5,96.2 147.9,95.93 148.3,95.64 148.69,95.32 149.09,94.98 149.49,94.62 149.88,94.23 150.28,93.82 150.68,93.39 151.08,92.95 151.47,92.48 151.87,91.99 152.27,91.48 152.66,90.96 153.06,90.42 153.46,89.87 153.85,89.3 154.25,88.71 154.65,88.11 155.04,87.5 155.44,86.88 155.84,86.25 156.23,85.6 156.63,84.96 157.03,84.3 157.43,83.63 157.82,82.96 158.22,82.29 158.62,81.61 159.01,80.93 159.41,80.25 159.81,79.56 160.2,78.88 160.6,78.21 161,77.53 161.39,76.86 161.79,76.19 162.19,75.53 162.58,74.88 162.98,74.24 163.38,73.6 163.78,72.97 164.17,72.36 164.57,71.75 164.97,71.16 165.36,70.58 165.76,70.01 166.16,69.45 166.55,68.92 166.95,68.39 167.35,67.88 167.74,67.38 168.14,66.89 168.54,66.43 168.93,65.98 169.33,65.54 169.73,65.12 170.13,64.71 170.52,64.32 170.92,63.95 171.32,63.59 171.71,63.24 172.11,62.92 172.51,62.6 172.9,62.3 173.3,62.02 173.7,61.75 174.09,61.5 174.49,61.26 174.89,61.03 175.28,60.82 175.68,60.62 176.08,60.43 176.48,60.26 176.87,60.1 177.27,59.96 177.67,59.83 178.06,59.71 178.46,59.6 178.86,59.5 179.25,59.42 179.65,59.35 180.05,59.29 180.44,59.25 180.84,59.21 181.24,59.19 181.63,59.18 182.03,59.18 182.43,59.19 182.83,59.21 183.22,59.25 183.62,59.29 184.02,59.35 184.41,59.42 184.81,59.5 185.21,59.6 185.6,59.71 186,59.82 186.4,59.95 186.79,60.1 187.19,60.26 187.59,60.43 187.98,60.61 188.38,60.82 188.78,61.03 189.18,61.27 189.57,61.51 189.97,61.78 190.37,62.06 190.76,62.36 191.16,62.68 191.56,63.02 191.95,63.39 192.35,63.77 192.75,64.18 193.14,64.62 193.54,65.07 193.94,65.56 194.33,66.08 194.73,66.63 195.13,67.2 195.53,67.81 195.92,68.46 196.32,69.15 196.72,69.87 197.11,70.63 197.51,71.43 197.91,72.29 198.3,73.18 198.7,74.13 199.1,75.12 199.49,76.17 199.89,77.29 200.29,78.45 200.68,79.67 201.08,80.96 201.48,82.32 201.88,83.74 202.27,85.23 202.67,86.79 203.07,88.43 203.46,90.15 203.86,91.95 204.26,93.82 204.65,95.77 205.05,97.83 205.45,99.96 205.84,102.18 206.24,104.48 206.64,106.87 207.03,109.36 207.43,111.93 207.83,114.59 208.23,117.33 208.62,120.16 209.02,123.09 209.42,126.09 209.81,129.16 210.21,132.3 210.61,135.54 211,138.83 211.4,142.18 211.8,145.58 212.19,149.04 212.59,152.54 212.99,156.07 213.38,159.62 213.78,163.19 214.18,166.76 214.58,170.33 214.97,173.88 215.37,177.4 215.77,180.89 216.16,184.31 216.56,187.67 216.96,190.96 217.35,194.16 217.75,197.25 218.15,200.2 218.54,203.03 218.94,205.73 219.34,208.27 219.73,210.61 220.13,212.77 220.53,214.74 220.93,216.52 221.32,218.08 221.72,219.37 222.12,220.43 222.51,221.27 222.91,221.87 223.31,222.19 223.7,222.22 224.1,222.01 224.5,221.55 224.89,220.84 225.29,219.8 225.69,218.51 226.08,216.97 226.48,215.2 226.88,213.18 227.28,210.87 227.67,208.35 228.07,205.62 228.47,202.7 228.86,199.55 229.26,196.21 229.66,192.71 230.05,189.06 230.45,185.29 230.85,181.35 231.24,177.32 231.64,173.21 232.04,169.02 232.43,164.77 232.83,160.48 233.23,156.16 233.63,151.84 234.02,147.51 234.42,143.22 234.82,138.96 235.21,134.75 235.61,130.59 236.01,126.5 236.4,122.52 236.8,118.62 237.2,114.82 237.59,111.13 237.99,107.55 238.39,104.12 238.78,100.81 239.18,97.62 239.58,94.55 239.98,91.64 240.37,88.88 240.77,86.25 241.17,83.74 241.56,81.36 241.96,79.16 242.36,77.07 242.75,75.11 243.15,73.26 243.55,71.55 243.94,69.96 244.34,68.49 244.74,67.11 245.13,65.83 245.53,64.67 245.93,63.6 246.33,62.62 246.72,61.71 247.12,60.88 247.52,60.14 247.91,59.46 248.31,58.84 248.71,58.28 249.1,57.78 249.5,57.33 249.9,56.93 250.29,56.56 250.69,56.23 251.09,55.95 251.48,55.7 251.88,55.47 252.28,55.27 252.68,55.09 253.07,54.94 253.47,54.8 253.87,54.68 254.26,54.57 254.66,54.48 255.06,54.41 255.45,54.34 255.85,54.28 256.25,54.23 256.64,54.19 257.04,54.15 257.44,54.12 257.83,54.09 258.23,54.07 258.63,54.05 259.03,54.03 259.42,54.02 259.82,54 260.22,53.99 260.61,53.99 261.01,53.98 261.41,53.97 261.8,53.97" stroke-dasharray="none" stroke="rgb(31,120,180)" stroke-width="0.75" opacity="1" stroke-opacity="1" fill="none"/>
          </g>
          <g id="Fig:densplot_01.xyplot.lines.group.3.panel.1.1.1">
            <polyline id="Fig:densplot_01.xyplot.lines.group.3.panel.1.1.1.1" points="59,53.97 59.4,53.97 59.79,53.97 60.19,53.98 60.59,53.99 60.98,53.99 61.38,54 61.78,54.01 62.18,54.02 62.57,54.04 62.97,54.05 63.37,54.07 63.76,54.09 64.16,54.12 64.56,54.15 64.95,54.18 65.35,54.22 65.75,54.26 66.14,54.3 66.54,54.36 66.94,54.42 67.33,54.48 67.73,54.55 68.13,54.64 68.53,54.73 68.92,54.83 69.32,54.94 69.72,55.06 70.11,55.19 70.51,55.34 70.91,55.5 71.3,55.68 71.7,55.86 72.1,56.06 72.49,56.28 72.89,56.52 73.29,56.77 73.68,57.04 74.08,57.33 74.48,57.63 74.88,57.95 75.27,58.29 75.67,58.65 76.07,59.02 76.46,59.42 76.86,59.83 77.26,60.26 77.65,60.7 78.05,61.16 78.45,61.64 78.84,62.13 79.24,62.63 79.64,63.15 80.03,63.68 80.43,64.23 80.83,64.78 81.23,65.34 81.62,65.9 82.02,66.48 82.42,67.06 82.81,67.64 83.21,68.22 83.61,68.81 84,69.4 84.4,69.98 84.8,70.57 85.19,71.15 85.59,71.72 85.99,72.3 86.38,72.86 86.78,73.42 87.18,73.97 87.58,74.51 87.97,75.04 88.37,75.56 88.77,76.07 89.16,76.57 89.56,77.06 89.96,77.53 90.35,78 90.75,78.45 91.15,78.88 91.54,79.31 91.94,79.72 92.34,80.11 92.73,80.5 93.13,80.87 93.53,81.22 93.93,81.57 94.32,81.89 94.72,82.21 95.12,82.51 95.51,82.8 95.91,83.08 96.31,83.34 96.7,83.58 97.1,83.82 97.5,84.04 97.89,84.26 98.29,84.45 98.69,84.64 99.08,84.81 99.48,84.98 99.88,85.13 100.28,85.27 100.67,85.4 101.07,85.51 101.47,85.62 101.86,85.72 102.26,85.8 102.66,85.88 103.05,85.95 103.45,86 103.85,86.05 104.24,86.09 104.64,86.12 105.04,86.14 105.43,86.15 105.83,86.15 106.23,86.15 106.63,86.14 107.02,86.12 107.42,86.09 107.82,86.05 108.21,86.01 108.61,85.96 109.01,85.9 109.4,85.84 109.8,85.77 110.2,85.7 110.59,85.62 110.99,85.53 111.39,85.44 111.78,85.35 112.18,85.25 112.58,85.15 112.98,85.04 113.37,84.94 113.77,84.83 114.17,84.72 114.56,84.61 114.96,84.5 115.36,84.4 115.75,84.29 116.15,84.19 116.55,84.09 116.94,83.99 117.34,83.9 117.74,83.81 118.13,83.73 118.53,83.66 118.93,83.6 119.33,83.54 119.72,83.5 120.12,83.46 120.52,83.44 120.91,83.42 121.31,83.42 121.71,83.43 122.1,83.46 122.5,83.5 122.9,83.55 123.29,83.62 123.69,83.7 124.09,83.8 124.48,83.92 124.88,84.05 125.28,84.2 125.68,84.37 126.07,84.56 126.47,84.76 126.87,84.98 127.26,85.21 127.66,85.46 128.06,85.73 128.45,86.01 128.85,86.31 129.25,86.62 129.64,86.95 130.04,87.29 130.44,87.64 130.83,88 131.23,88.37 131.63,88.76 132.03,89.15 132.42,89.54 132.82,89.94 133.22,90.35 133.61,90.76 134.01,91.17 134.41,91.57 134.8,91.98 135.2,92.38 135.6,92.78 135.99,93.17 136.39,93.55 136.79,93.92 137.18,94.28 137.58,94.63 137.98,94.96 138.38,95.28 138.77,95.58 139.17,95.86 139.57,96.12 139.96,96.36 140.36,96.58 140.76,96.78 141.15,96.95 141.55,97.1 141.95,97.23 142.34,97.33 142.74,97.4 143.14,97.44 143.53,97.47 143.93,97.46 144.33,97.42 144.73,97.36 145.12,97.28 145.52,97.17 145.92,97.02 146.31,96.85 146.71,96.66 147.11,96.44 147.5,96.2 147.9,95.93 148.3,95.64 148.69,95.32 149.09,94.98 149.49,94.62 149.88,94.23 150.28,93.82 150.68,93.39 151.08,92.95 151.47,92.48 151.87,91.99 152.27,91.48 152.66,90.96 153.06,90.42 153.46,89.87 153.85,89.3 154.25,88.71 154.65,88.11 155.04,87.5 155.44,86.88 155.84,86.25 156.23,85.6 156.63,84.96 157.03,84.3 157.43,83.63 157.82,82.96 158.22,82.29 158.62,81.61 159.01,80.93 159.41,80.25 159.81,79.56 160.2,78.88 160.6,78.21 161,77.53 161.39,76.86 161.79,76.19 162.19,75.53 162.58,74.88 162.98,74.24 163.38,73.6 163.78,72.97 164.17,72.36 164.57,71.75 164.97,71.16 165.36,70.58 165.76,70.01 166.16,69.45 166.55,68.92 166.95,68.39 167.35,67.88 167.74,67.38 168.14,66.89 168.54,66.43 168.93,65.98 169.33,65.54 169.73,65.12 170.13,64.71 170.52,64.32 170.92,63.95 171.32,63.59 171.71,63.24 172.11,62.92 172.51,62.6 172.9,62.3 173.3,62.02 173.7,61.75 174.09,61.5 174.49,61.26 174.89,61.03 175.28,60.82 175.68,60.62 176.08,60.43 176.48,60.26 176.87,60.1 177.27,59.96 177.67,59.83 178.06,59.71 178.46,59.6 178.86,59.5 179.25,59.42 179.65,59.35 180.05,59.29 180.44,59.25 180.84,59.21 181.24,59.19 181.63,59.18 182.03,59.18 182.43,59.19 182.83,59.21 183.22,59.25 183.62,59.29 184.02,59.35 184.41,59.42 184.81,59.5 185.21,59.6 185.6,59.71 186,59.82 186.4,59.95 186.79,60.1 187.19,60.26 187.59,60.43 187.98,60.61 188.38,60.82 188.78,61.03 189.18,61.27 189.57,61.51 189.97,61.78 190.37,62.06 190.76,62.36 191.16,62.68 191.56,63.02 191.95,63.39 192.35,63.77 192.75,64.18 193.14,64.62 193.54,65.07 193.94,65.56 194.33,66.08 194.73,66.63 195.13,67.2 195.53,67.81 195.92,68.46 196.32,69.15 196.72,69.87 197.11,70.63 197.51,71.43 197.91,72.29 198.3,73.18 198.7,74.13 199.1,75.12 199.49,76.17 199.89,77.29 200.29,78.45 200.68,79.67 201.08,80.96 201.48,82.32 201.88,83.74 202.27,85.23 202.67,86.79 203.07,88.43 203.46,90.15 203.86,91.95 204.26,93.82 204.65,95.77 205.05,97.83 205.45,99.96 205.84,102.18 206.24,104.48 206.64,106.87 207.03,109.36 207.43,111.93 207.83,114.59 208.23,117.33 208.62,120.16 209.02,123.09 209.42,126.09 209.81,129.16 210.21,132.3 210.61,135.54 211,138.83 211.4,142.18 211.8,145.58 212.19,149.04 212.59,152.54 212.99,156.07 213.38,159.62 213.78,163.19 214.18,166.76 214.58,170.33 214.97,173.88 215.37,177.4 215.77,180.89 216.16,184.31 216.56,187.67 216.96,190.96 217.35,194.16 217.75,197.25 218.15,200.2 218.54,203.03 218.94,205.73 219.34,208.27 219.73,210.61 220.13,212.77 220.53,214.74 220.93,216.52 221.32,218.08 221.72,219.37 222.12,220.43 222.51,221.27 222.91,221.87 223.31,222.19 223.7,222.22 224.1,222.01 224.5,221.55 224.89,220.84 225.29,219.8 225.69,218.51 226.08,216.97 226.48,215.2 226.88,213.18 227.28,210.87 227.67,208.35 228.07,205.62 228.47,202.7 228.86,199.55 229.26,196.21 229.66,192.71 230.05,189.06 230.45,185.29 230.85,181.35 231.24,177.32 231.64,173.21 232.04,169.02 232.43,164.77 232.83,160.48 233.23,156.16 233.63,151.84 234.02,147.51 234.42,143.22 234.82,138.96 235.21,134.75 235.61,130.59 236.01,126.5 236.4,122.52 236.8,118.62 237.2,114.82 237.59,111.13 237.99,107.55 238.39,104.12 238.78,100.81 239.18,97.62 239.58,94.55 239.98,91.64 240.37,88.88 240.77,86.25 241.17,83.74 241.56,81.36 241.96,79.16 242.36,77.07 242.75,75.11 243.15,73.26 243.55,71.55 243.94,69.96 244.34,68.49 244.74,67.11 245.13,65.83 245.53,64.67 245.93,63.6 246.33,62.62 246.72,61.71 247.12,60.88 247.52,60.14 247.91,59.46 248.31,58.84 248.71,58.28 249.1,57.78 249.5,57.33 249.9,56.93 250.29,56.56 250.69,56.23 251.09,55.95 251.48,55.7 251.88,55.47 252.28,55.27 252.68,55.09 253.07,54.94 253.47,54.8 253.87,54.68 254.26,54.57 254.66,54.48 255.06,54.41 255.45,54.34 255.85,54.28 256.25,54.23 256.64,54.19 257.04,54.15 257.44,54.12 257.83,54.09 258.23,54.07 258.63,54.05 259.03,54.03 259.42,54.02 259.82,54 260.22,53.99 260.61,53.99 261.01,53.98 261.41,53.97 261.8,53.97" stroke-dasharray="none" stroke="rgb(31,120,180)" stroke-width="0.75" opacity="1" stroke-opacity="1" fill="none"/>
          </g>
          <g id="Fig:densplot_01.xyplot.lines.group.4.panel.1.1.1">
            <polyline id="Fig:densplot_01.xyplot.lines.group.4.panel.1.1.1.1" points="59,53.97 59.4,53.97 59.79,53.97 60.19,53.98 60.59,53.99 60.98,53.99 61.38,54 61.78,54.01 62.18,54.02 62.57,54.04 62.97,54.05 63.37,54.07 63.76,54.09 64.16,54.12 64.56,54.15 64.95,54.18 65.35,54.22 65.75,54.26 66.14,54.3 66.54,54.36 66.94,54.42 67.33,54.48 67.73,54.55 68.13,54.64 68.53,54.73 68.92,54.83 69.32,54.94 69.72,55.06 70.11,55.19 70.51,55.34 70.91,55.5 71.3,55.68 71.7,55.86 72.1,56.06 72.49,56.28 72.89,56.52 73.29,56.77 73.68,57.04 74.08,57.33 74.48,57.63 74.88,57.95 75.27,58.29 75.67,58.65 76.07,59.02 76.46,59.42 76.86,59.83 77.26,60.26 77.65,60.7 78.05,61.16 78.45,61.64 78.84,62.13 79.24,62.63 79.64,63.15 80.03,63.68 80.43,64.23 80.83,64.78 81.23,65.34 81.62,65.9 82.02,66.48 82.42,67.06 82.81,67.64 83.21,68.22 83.61,68.81 84,69.4 84.4,69.98 84.8,70.57 85.19,71.15 85.59,71.72 85.99,72.3 86.38,72.86 86.78,73.42 87.18,73.97 87.58,74.51 87.97,75.04 88.37,75.56 88.77,76.07 89.16,76.57 89.56,77.06 89.96,77.53 90.35,78 90.75,78.45 91.15,78.88 91.54,79.31 91.94,79.72 92.34,80.11 92.73,80.5 93.13,80.87 93.53,81.22 93.93,81.57 94.32,81.89 94.72,82.21 95.12,82.51 95.51,82.8 95.91,83.08 96.31,83.34 96.7,83.58 97.1,83.82 97.5,84.04 97.89,84.26 98.29,84.45 98.69,84.64 99.08,84.81 99.48,84.98 99.88,85.13 100.28,85.27 100.67,85.4 101.07,85.51 101.47,85.62 101.86,85.72 102.26,85.8 102.66,85.88 103.05,85.95 103.45,86 103.85,86.05 104.24,86.09 104.64,86.12 105.04,86.14 105.43,86.15 105.83,86.15 106.23,86.15 106.63,86.14 107.02,86.12 107.42,86.09 107.82,86.05 108.21,86.01 108.61,85.96 109.01,85.9 109.4,85.84 109.8,85.77 110.2,85.7 110.59,85.62 110.99,85.53 111.39,85.44 111.78,85.35 112.18,85.25 112.58,85.15 112.98,85.04 113.37,84.94 113.77,84.83 114.17,84.72 114.56,84.61 114.96,84.5 115.36,84.4 115.75,84.29 116.15,84.19 116.55,84.09 116.94,83.99 117.34,83.9 117.74,83.81 118.13,83.73 118.53,83.66 118.93,83.6 119.33,83.54 119.72,83.5 120.12,83.46 120.52,83.44 120.91,83.42 121.31,83.42 121.71,83.43 122.1,83.46 122.5,83.5 122.9,83.55 123.29,83.62 123.69,83.7 124.09,83.8 124.48,83.92 124.88,84.05 125.28,84.2 125.68,84.37 126.07,84.56 126.47,84.76 126.87,84.98 127.26,85.21 127.66,85.46 128.06,85.73 128.45,86.01 128.85,86.31 129.25,86.62 129.64,86.95 130.04,87.29 130.44,87.64 130.83,88 131.23,88.37 131.63,88.76 132.03,89.15 132.42,89.54 132.82,89.94 133.22,90.35 133.61,90.76 134.01,91.17 134.41,91.57 134.8,91.98 135.2,92.38 135.6,92.78 135.99,93.17 136.39,93.55 136.79,93.92 137.18,94.28 137.58,94.63 137.98,94.96 138.38,95.28 138.77,95.58 139.17,95.86 139.57,96.12 139.96,96.36 140.36,96.58 140.76,96.78 141.15,96.95 141.55,97.1 141.95,97.23 142.34,97.33 142.74,97.4 143.14,97.44 143.53,97.47 143.93,97.46 144.33,97.42 144.73,97.36 145.12,97.28 145.52,97.17 145.92,97.02 146.31,96.85 146.71,96.66 147.11,96.44 147.5,96.2 147.9,95.93 148.3,95.64 148.69,95.32 149.09,94.98 149.49,94.62 149.88,94.23 150.28,93.82 150.68,93.39 151.08,92.95 151.47,92.48 151.87,91.99 152.27,91.48 152.66,90.96 153.06,90.42 153.46,89.87 153.85,89.3 154.25,88.71 154.65,88.11 155.04,87.5 155.44,86.88 155.84,86.25 156.23,85.6 156.63,84.96 157.03,84.3 157.43,83.63 157.82,82.96 158.22,82.29 158.62,81.61 159.01,80.93 159.41,80.25 159.81,79.56 160.2,78.88 160.6,78.21 161,77.53 161.39,76.86 161.79,76.19 162.19,75.53 162.58,74.88 162.98,74.24 163.38,73.6 163.78,72.97 164.17,72.36 164.57,71.75 164.97,71.16 165.36,70.58 165.76,70.01 166.16,69.45 166.55,68.92 166.95,68.39 167.35,67.88 167.74,67.38 168.14,66.89 168.54,66.43 168.93,65.98 169.33,65.54 169.73,65.12 170.13,64.71 170.52,64.32 170.92,63.95 171.32,63.59 171.71,63.24 172.11,62.92 172.51,62.6 172.9,62.3 173.3,62.02 173.7,61.75 174.09,61.5 174.49,61.26 174.89,61.03 175.28,60.82 175.68,60.62 176.08,60.43 176.48,60.26 176.87,60.1 177.27,59.96 177.67,59.83 178.06,59.71 178.46,59.6 178.86,59.5 179.25,59.42 179.65,59.35 180.05,59.29 180.44,59.25 180.84,59.21 181.24,59.19 181.63,59.18 182.03,59.18 182.43,59.19 182.83,59.21 183.22,59.25 183.62,59.29 184.02,59.35 184.41,59.42 184.81,59.5 185.21,59.6 185.6,59.71 186,59.82 186.4,59.95 186.79,60.1 187.19,60.26 187.59,60.43 187.98,60.61 188.38,60.82 188.78,61.03 189.18,61.27 189.57,61.51 189.97,61.78 190.37,62.06 190.76,62.36 191.16,62.68 191.56,63.02 191.95,63.39 192.35,63.77 192.75,64.18 193.14,64.62 193.54,65.07 193.94,65.56 194.33,66.08 194.73,66.63 195.13,67.2 195.53,67.81 195.92,68.46 196.32,69.15 196.72,69.87 197.11,70.63 197.51,71.43 197.91,72.29 198.3,73.18 198.7,74.13 199.1,75.12 199.49,76.17 199.89,77.29 200.29,78.45 200.68,79.67 201.08,80.96 201.48,82.32 201.88,83.74 202.27,85.23 202.67,86.79 203.07,88.43 203.46,90.15 203.86,91.95 204.26,93.82 204.65,95.77 205.05,97.83 205.45,99.96 205.84,102.18 206.24,104.48 206.64,106.87 207.03,109.36 207.43,111.93 207.83,114.59 208.23,117.33 208.62,120.16 209.02,123.09 209.42,126.09 209.81,129.16 210.21,132.3 210.61,135.54 211,138.83 211.4,142.18 211.8,145.58 212.19,149.04 212.59,152.54 212.99,156.07 213.38,159.62 213.78,163.19 214.18,166.76 214.58,170.33 214.97,173.88 215.37,177.4 215.77,180.89 216.16,184.31 216.56,187.67 216.96,190.96 217.35,194.16 217.75,197.25 218.15,200.2 218.54,203.03 218.94,205.73 219.34,208.27 219.73,210.61 220.13,212.77 220.53,214.74 220.93,216.52 221.32,218.08 221.72,219.37 222.12,220.43 222.51,221.27 222.91,221.87 223.31,222.19 223.7,222.22 224.1,222.01 224.5,221.55 224.89,220.84 225.29,219.8 225.69,218.51 226.08,216.97 226.48,215.2 226.88,213.18 227.28,210.87 227.67,208.35 228.07,205.62 228.47,202.7 228.86,199.55 229.26,196.21 229.66,192.71 230.05,189.06 230.45,185.29 230.85,181.35 231.24,177.32 231.64,173.21 232.04,169.02 232.43,164.77 232.83,160.48 233.23,156.16 233.63,151.84 234.02,147.51 234.42,143.22 234.82,138.96 235.21,134.75 235.61,130.59 236.01,126.5 236.4,122.52 236.8,118.62 237.2,114.82 237.59,111.13 237.99,107.55 238.39,104.12 238.78,100.81 239.18,97.62 239.58,94.55 239.98,91.64 240.37,88.88 240.77,86.25 241.17,83.74 241.56,81.36 241.96,79.16 242.36,77.07 242.75,75.11 243.15,73.26 243.55,71.55 243.94,69.96 244.34,68.49 244.74,67.11 245.13,65.83 245.53,64.67 245.93,63.6 246.33,62.62 246.72,61.71 247.12,60.88 247.52,60.14 247.91,59.46 248.31,58.84 248.71,58.28 249.1,57.78 249.5,57.33 249.9,56.93 250.29,56.56 250.69,56.23 251.09,55.95 251.48,55.7 251.88,55.47 252.28,55.27 252.68,55.09 253.07,54.94 253.47,54.8 253.87,54.68 254.26,54.57 254.66,54.48 255.06,54.41 255.45,54.34 255.85,54.28 256.25,54.23 256.64,54.19 257.04,54.15 257.44,54.12 257.83,54.09 258.23,54.07 258.63,54.05 259.03,54.03 259.42,54.02 259.82,54 260.22,53.99 260.61,53.99 261.01,53.98 261.41,53.97 261.8,53.97" stroke-dasharray="none" stroke="rgb(31,120,180)" stroke-width="0.75" opacity="1" stroke-opacity="1" fill="none"/>
          </g>
          <g id="Fig:densplot_01.xyplot.lines.group.5.panel.1.1.1">
            <polyline id="Fig:densplot_01.xyplot.lines.group.5.panel.1.1.1.1" points="59,53.97 59.4,53.97 59.79,53.97 60.19,53.98 60.59,53.99 60.98,53.99 61.38,54 61.78,54.01 62.18,54.02 62.57,54.04 62.97,54.05 63.37,54.07 63.76,54.09 64.16,54.12 64.56,54.15 64.95,54.18 65.35,54.22 65.75,54.26 66.14,54.3 66.54,54.36 66.94,54.42 67.33,54.48 67.73,54.55 68.13,54.64 68.53,54.73 68.92,54.83 69.32,54.94 69.72,55.06 70.11,55.19 70.51,55.34 70.91,55.5 71.3,55.68 71.7,55.86 72.1,56.06 72.49,56.28 72.89,56.52 73.29,56.77 73.68,57.04 74.08,57.33 74.48,57.63 74.88,57.95 75.27,58.29 75.67,58.65 76.07,59.02 76.46,59.42 76.86,59.83 77.26,60.26 77.65,60.7 78.05,61.16 78.45,61.64 78.84,62.13 79.24,62.63 79.64,63.15 80.03,63.68 80.43,64.23 80.83,64.78 81.23,65.34 81.62,65.9 82.02,66.48 82.42,67.06 82.81,67.64 83.21,68.22 83.61,68.81 84,69.4 84.4,69.98 84.8,70.57 85.19,71.15 85.59,71.72 85.99,72.3 86.38,72.86 86.78,73.42 87.18,73.97 87.58,74.51 87.97,75.04 88.37,75.56 88.77,76.07 89.16,76.57 89.56,77.06 89.96,77.53 90.35,78 90.75,78.45 91.15,78.88 91.54,79.31 91.94,79.72 92.34,80.11 92.73,80.5 93.13,80.87 93.53,81.22 93.93,81.57 94.32,81.89 94.72,82.21 95.12,82.51 95.51,82.8 95.91,83.08 96.31,83.34 96.7,83.58 97.1,83.82 97.5,84.04 97.89,84.26 98.29,84.45 98.69,84.64 99.08,84.81 99.48,84.98 99.88,85.13 100.28,85.27 100.67,85.4 101.07,85.51 101.47,85.62 101.86,85.72 102.26,85.8 102.66,85.88 103.05,85.95 103.45,86 103.85,86.05 104.24,86.09 104.64,86.12 105.04,86.14 105.43,86.15 105.83,86.15 106.23,86.15 106.63,86.14 107.02,86.12 107.42,86.09 107.82,86.05 108.21,86.01 108.61,85.96 109.01,85.9 109.4,85.84 109.8,85.77 110.2,85.7 110.59,85.62 110.99,85.53 111.39,85.44 111.78,85.35 112.18,85.25 112.58,85.15 112.98,85.04 113.37,84.94 113.77,84.83 114.17,84.72 114.56,84.61 114.96,84.5 115.36,84.4 115.75,84.29 116.15,84.19 116.55,84.09 116.94,83.99 117.34,83.9 117.74,83.81 118.13,83.73 118.53,83.66 118.93,83.6 119.33,83.54 119.72,83.5 120.12,83.46 120.52,83.44 120.91,83.42 121.31,83.42 121.71,83.43 122.1,83.46 122.5,83.5 122.9,83.55 123.29,83.62 123.69,83.7 124.09,83.8 124.48,83.92 124.88,84.05 125.28,84.2 125.68,84.37 126.07,84.56 126.47,84.76 126.87,84.98 127.26,85.21 127.66,85.46 128.06,85.73 128.45,86.01 128.85,86.31 129.25,86.62 129.64,86.95 130.04,87.29 130.44,87.64 130.83,88 131.23,88.37 131.63,88.76 132.03,89.15 132.42,89.54 132.82,89.94 133.22,90.35 133.61,90.76 134.01,91.17 134.41,91.57 134.8,91.98 135.2,92.38 135.6,92.78 135.99,93.17 136.39,93.55 136.79,93.92 137.18,94.28 137.58,94.63 137.98,94.96 138.38,95.28 138.77,95.58 139.17,95.86 139.57,96.12 139.96,96.36 140.36,96.58 140.76,96.78 141.15,96.95 141.55,97.1 141.95,97.23 142.34,97.33 142.74,97.4 143.14,97.44 143.53,97.47 143.93,97.46 144.33,97.42 144.73,97.36 145.12,97.28 145.52,97.17 145.92,97.02 146.31,96.85 146.71,96.66 147.11,96.44 147.5,96.2 147.9,95.93 148.3,95.64 148.69,95.32 149.09,94.98 149.49,94.62 149.88,94.23 150.28,93.82 150.68,93.39 151.08,92.95 151.47,92.48 151.87,91.99 152.27,91.48 152.66,90.96 153.06,90.42 153.46,89.87 153.85,89.3 154.25,88.71 154.65,88.11 155.04,87.5 155.44,86.88 155.84,86.25 156.23,85.6 156.63,84.96 157.03,84.3 157.43,83.63 157.82,82.96 158.22,82.29 158.62,81.61 159.01,80.93 159.41,80.25 159.81,79.56 160.2,78.88 160.6,78.21 161,77.53 161.39,76.86 161.79,76.19 162.19,75.53 162.58,74.88 162.98,74.24 163.38,73.6 163.78,72.97 164.17,72.36 164.57,71.75 164.97,71.16 165.36,70.58 165.76,70.01 166.16,69.45 166.55,68.92 166.95,68.39 167.35,67.88 167.74,67.38 168.14,66.89 168.54,66.43 168.93,65.98 169.33,65.54 169.73,65.12 170.13,64.71 170.52,64.32 170.92,63.95 171.32,63.59 171.71,63.24 172.11,62.92 172.51,62.6 172.9,62.3 173.3,62.02 173.7,61.75 174.09,61.5 174.49,61.26 174.89,61.03 175.28,60.82 175.68,60.62 176.08,60.43 176.48,60.26 176.87,60.1 177.27,59.96 177.67,59.83 178.06,59.71 178.46,59.6 178.86,59.5 179.25,59.42 179.65,59.35 180.05,59.29 180.44,59.25 180.84,59.21 181.24,59.19 181.63,59.18 182.03,59.18 182.43,59.19 182.83,59.21 183.22,59.25 183.62,59.29 184.02,59.35 184.41,59.42 184.81,59.5 185.21,59.6 185.6,59.71 186,59.82 186.4,59.95 186.79,60.1 187.19,60.26 187.59,60.43 187.98,60.61 188.38,60.82 188.78,61.03 189.18,61.27 189.57,61.51 189.97,61.78 190.37,62.06 190.76,62.36 191.16,62.68 191.56,63.02 191.95,63.39 192.35,63.77 192.75,64.18 193.14,64.62 193.54,65.07 193.94,65.56 194.33,66.08 194.73,66.63 195.13,67.2 195.53,67.81 195.92,68.46 196.32,69.15 196.72,69.87 197.11,70.63 197.51,71.43 197.91,72.29 198.3,73.18 198.7,74.13 199.1,75.12 199.49,76.17 199.89,77.29 200.29,78.45 200.68,79.67 201.08,80.96 201.48,82.32 201.88,83.74 202.27,85.23 202.67,86.79 203.07,88.43 203.46,90.15 203.86,91.95 204.26,93.82 204.65,95.77 205.05,97.83 205.45,99.96 205.84,102.18 206.24,104.48 206.64,106.87 207.03,109.36 207.43,111.93 207.83,114.59 208.23,117.33 208.62,120.16 209.02,123.09 209.42,126.09 209.81,129.16 210.21,132.3 210.61,135.54 211,138.83 211.4,142.18 211.8,145.58 212.19,149.04 212.59,152.54 212.99,156.07 213.38,159.62 213.78,163.19 214.18,166.76 214.58,170.33 214.97,173.88 215.37,177.4 215.77,180.89 216.16,184.31 216.56,187.67 216.96,190.96 217.35,194.16 217.75,197.25 218.15,200.2 218.54,203.03 218.94,205.73 219.34,208.27 219.73,210.61 220.13,212.77 220.53,214.74 220.93,216.52 221.32,218.08 221.72,219.37 222.12,220.43 222.51,221.27 222.91,221.87 223.31,222.19 223.7,222.22 224.1,222.01 224.5,221.55 224.89,220.84 225.29,219.8 225.69,218.51 226.08,216.97 226.48,215.2 226.88,213.18 227.28,210.87 227.67,208.35 228.07,205.62 228.47,202.7 228.86,199.55 229.26,196.21 229.66,192.71 230.05,189.06 230.45,185.29 230.85,181.35 231.24,177.32 231.64,173.21 232.04,169.02 232.43,164.77 232.83,160.48 233.23,156.16 233.63,151.84 234.02,147.51 234.42,143.22 234.82,138.96 235.21,134.75 235.61,130.59 236.01,126.5 236.4,122.52 236.8,118.62 237.2,114.82 237.59,111.13 237.99,107.55 238.39,104.12 238.78,100.81 239.18,97.62 239.58,94.55 239.98,91.64 240.37,88.88 240.77,86.25 241.17,83.74 241.56,81.36 241.96,79.16 242.36,77.07 242.75,75.11 243.15,73.26 243.55,71.55 243.94,69.96 244.34,68.49 244.74,67.11 245.13,65.83 245.53,64.67 245.93,63.6 246.33,62.62 246.72,61.71 247.12,60.88 247.52,60.14 247.91,59.46 248.31,58.84 248.71,58.28 249.1,57.78 249.5,57.33 249.9,56.93 250.29,56.56 250.69,56.23 251.09,55.95 251.48,55.7 251.88,55.47 252.28,55.27 252.68,55.09 253.07,54.94 253.47,54.8 253.87,54.68 254.26,54.57 254.66,54.48 255.06,54.41 255.45,54.34 255.85,54.28 256.25,54.23 256.64,54.19 257.04,54.15 257.44,54.12 257.83,54.09 258.23,54.07 258.63,54.05 259.03,54.03 259.42,54.02 259.82,54 260.22,53.99 260.61,53.99 261.01,53.98 261.41,53.97 261.8,53.97" stroke-dasharray="none" stroke="rgb(31,120,180)" stroke-width="0.75" opacity="1" stroke-opacity="1" fill="none"/>
          </g>
          <g id="Fig:densplot_01.xyplot.lines.group.6.panel.1.1.1">
            <polyline id="Fig:densplot_01.xyplot.lines.group.6.panel.1.1.1.1" points="59,53.97 59.4,53.97 59.79,53.97 60.19,53.98 60.59,53.99 60.98,53.99 61.38,54 61.78,54.01 62.18,54.02 62.57,54.04 62.97,54.05 63.37,54.07 63.76,54.09 64.16,54.12 64.56,54.15 64.95,54.18 65.35,54.22 65.75,54.26 66.14,54.3 66.54,54.36 66.94,54.42 67.33,54.48 67.73,54.55 68.13,54.64 68.53,54.73 68.92,54.83 69.32,54.94 69.72,55.06 70.11,55.19 70.51,55.34 70.91,55.5 71.3,55.68 71.7,55.86 72.1,56.06 72.49,56.28 72.89,56.52 73.29,56.77 73.68,57.04 74.08,57.33 74.48,57.63 74.88,57.95 75.27,58.29 75.67,58.65 76.07,59.02 76.46,59.42 76.86,59.83 77.26,60.26 77.65,60.7 78.05,61.16 78.45,61.64 78.84,62.13 79.24,62.63 79.64,63.15 80.03,63.68 80.43,64.23 80.83,64.78 81.23,65.34 81.62,65.9 82.02,66.48 82.42,67.06 82.81,67.64 83.21,68.22 83.61,68.81 84,69.4 84.4,69.98 84.8,70.57 85.19,71.15 85.59,71.72 85.99,72.3 86.38,72.86 86.78,73.42 87.18,73.97 87.58,74.51 87.97,75.04 88.37,75.56 88.77,76.07 89.16,76.57 89.56,77.06 89.96,77.53 90.35,78 90.75,78.45 91.15,78.88 91.54,79.31 91.94,79.72 92.34,80.11 92.73,80.5 93.13,80.87 93.53,81.22 93.93,81.57 94.32,81.89 94.72,82.21 95.12,82.51 95.51,82.8 95.91,83.08 96.31,83.34 96.7,83.58 97.1,83.82 97.5,84.04 97.89,84.26 98.29,84.45 98.69,84.64 99.08,84.81 99.48,84.98 99.88,85.13 100.28,85.27 100.67,85.4 101.07,85.51 101.47,85.62 101.86,85.72 102.26,85.8 102.66,85.88 103.05,85.95 103.45,86 103.85,86.05 104.24,86.09 104.64,86.12 105.04,86.14 105.43,86.15 105.83,86.15 106.23,86.15 106.63,86.14 107.02,86.12 107.42,86.09 107.82,86.05 108.21,86.01 108.61,85.96 109.01,85.9 109.4,85.84 109.8,85.77 110.2,85.7 110.59,85.62 110.99,85.53 111.39,85.44 111.78,85.35 112.18,85.25 112.58,85.15 112.98,85.04 113.37,84.94 113.77,84.83 114.17,84.72 114.56,84.61 114.96,84.5 115.36,84.4 115.75,84.29 116.15,84.19 116.55,84.09 116.94,83.99 117.34,83.9 117.74,83.81 118.13,83.73 118.53,83.66 118.93,83.6 119.33,83.54 119.72,83.5 120.12,83.46 120.52,83.44 120.91,83.42 121.31,83.42 121.71,83.43 122.1,83.46 122.5,83.5 122.9,83.55 123.29,83.62 123.69,83.7 124.09,83.8 124.48,83.92 124.88,84.05 125.28,84.2 125.68,84.37 126.07,84.56 126.47,84.76 126.87,84.98 127.26,85.21 127.66,85.46 128.06,85.73 128.45,86.01 128.85,86.31 129.25,86.62 129.64,86.95 130.04,87.29 130.44,87.64 130.83,88 131.23,88.37 131.63,88.76 132.03,89.15 132.42,89.54 132.82,89.94 133.22,90.35 133.61,90.76 134.01,91.17 134.41,91.57 134.8,91.98 135.2,92.38 135.6,92.78 135.99,93.17 136.39,93.55 136.79,93.92 137.18,94.28 137.58,94.63 137.98,94.96 138.38,95.28 138.77,95.58 139.17,95.86 139.57,96.12 139.96,96.36 140.36,96.58 140.76,96.78 141.15,96.95 141.55,97.1 141.95,97.23 142.34,97.33 142.74,97.4 143.14,97.44 143.53,97.47 143.93,97.46 144.33,97.42 144.73,97.36 145.12,97.28 145.52,97.17 145.92,97.02 146.31,96.85 146.71,96.66 147.11,96.44 147.5,96.2 147.9,95.93 148.3,95.64 148.69,95.32 149.09,94.98 149.49,94.62 149.88,94.23 150.28,93.82 150.68,93.39 151.08,92.95 151.47,92.48 151.87,91.99 152.27,91.48 152.66,90.96 153.06,90.42 153.46,89.87 153.85,89.3 154.25,88.71 154.65,88.11 155.04,87.5 155.44,86.88 155.84,86.25 156.23,85.6 156.63,84.96 157.03,84.3 157.43,83.63 157.82,82.96 158.22,82.29 158.62,81.61 159.01,80.93 159.41,80.25 159.81,79.56 160.2,78.88 160.6,78.21 161,77.53 161.39,76.86 161.79,76.19 162.19,75.53 162.58,74.88 162.98,74.24 163.38,73.6 163.78,72.97 164.17,72.36 164.57,71.75 164.97,71.16 165.36,70.58 165.76,70.01 166.16,69.45 166.55,68.92 166.95,68.39 167.35,67.88 167.74,67.38 168.14,66.89 168.54,66.43 168.93,65.98 169.33,65.54 169.73,65.12 170.13,64.71 170.52,64.32 170.92,63.95 171.32,63.59 171.71,63.24 172.11,62.92 172.51,62.6 172.9,62.3 173.3,62.02 173.7,61.75 174.09,61.5 174.49,61.26 174.89,61.03 175.28,60.82 175.68,60.62 176.08,60.43 176.48,60.26 176.87,60.1 177.27,59.96 177.67,59.83 178.06,59.71 178.46,59.6 178.86,59.5 179.25,59.42 179.65,59.35 180.05,59.29 180.44,59.25 180.84,59.21 181.24,59.19 181.63,59.18 182.03,59.18 182.43,59.19 182.83,59.21 183.22,59.25 183.62,59.29 184.02,59.35 184.41,59.42 184.81,59.5 185.21,59.6 185.6,59.71 186,59.82 186.4,59.95 186.79,60.1 187.19,60.26 187.59,60.43 187.98,60.61 188.38,60.82 188.78,61.03 189.18,61.27 189.57,61.51 189.97,61.78 190.37,62.06 190.76,62.36 191.16,62.68 191.56,63.02 191.95,63.39 192.35,63.77 192.75,64.18 193.14,64.62 193.54,65.07 193.94,65.56 194.33,66.08 194.73,66.63 195.13,67.2 195.53,67.81 195.92,68.46 196.32,69.15 196.72,69.87 197.11,70.63 197.51,71.43 197.91,72.29 198.3,73.18 198.7,74.13 199.1,75.12 199.49,76.17 199.89,77.29 200.29,78.45 200.68,79.67 201.08,80.96 201.48,82.32 201.88,83.74 202.27,85.23 202.67,86.79 203.07,88.43 203.46,90.15 203.86,91.95 204.26,93.82 204.65,95.77 205.05,97.83 205.45,99.96 205.84,102.18 206.24,104.48 206.64,106.87 207.03,109.36 207.43,111.93 207.83,114.59 208.23,117.33 208.62,120.16 209.02,123.09 209.42,126.09 209.81,129.16 210.21,132.3 210.61,135.54 211,138.83 211.4,142.18 211.8,145.58 212.19,149.04 212.59,152.54 212.99,156.07 213.38,159.62 213.78,163.19 214.18,166.76 214.58,170.33 214.97,173.88 215.37,177.4 215.77,180.89 216.16,184.31 216.56,187.67 216.96,190.96 217.35,194.16 217.75,197.25 218.15,200.2 218.54,203.03 218.94,205.73 219.34,208.27 219.73,210.61 220.13,212.77 220.53,214.74 220.93,216.52 221.32,218.08 221.72,219.37 222.12,220.43 222.51,221.27 222.91,221.87 223.31,222.19 223.7,222.22 224.1,222.01 224.5,221.55 224.89,220.84 225.29,219.8 225.69,218.51 226.08,216.97 226.48,215.2 226.88,213.18 227.28,210.87 227.67,208.35 228.07,205.62 228.47,202.7 228.86,199.55 229.26,196.21 229.66,192.71 230.05,189.06 230.45,185.29 230.85,181.35 231.24,177.32 231.64,173.21 232.04,169.02 232.43,164.77 232.83,160.48 233.23,156.16 233.63,151.84 234.02,147.51 234.42,143.22 234.82,138.96 235.21,134.75 235.61,130.59 236.01,126.5 236.4,122.52 236.8,118.62 237.2,114.82 237.59,111.13 237.99,107.55 238.39,104.12 238.78,100.81 239.18,97.62 239.58,94.55 239.98,91.64 240.37,88.88 240.77,86.25 241.17,83.74 241.56,81.36 241.96,79.16 242.36,77.07 242.75,75.11 243.15,73.26 243.55,71.55 243.94,69.96 244.34,68.49 244.74,67.11 245.13,65.83 245.53,64.67 245.93,63.6 246.33,62.62 246.72,61.71 247.12,60.88 247.52,60.14 247.91,59.46 248.31,58.84 248.71,58.28 249.1,57.78 249.5,57.33 249.9,56.93 250.29,56.56 250.69,56.23 251.09,55.95 251.48,55.7 251.88,55.47 252.28,55.27 252.68,55.09 253.07,54.94 253.47,54.8 253.87,54.68 254.26,54.57 254.66,54.48 255.06,54.41 255.45,54.34 255.85,54.28 256.25,54.23 256.64,54.19 257.04,54.15 257.44,54.12 257.83,54.09 258.23,54.07 258.63,54.05 259.03,54.03 259.42,54.02 259.82,54 260.22,53.99 260.61,53.99 261.01,53.98 261.41,53.97 261.8,53.97" stroke-dasharray="none" stroke="rgb(31,120,180)" stroke-width="0.75" opacity="1" stroke-opacity="1" fill="none"/>
          </g>
        </g>
        <g id="Fig:densplot_01.panel.1.1.off.vp.2">
          <g id="Fig:densplot_01.border.panel.1.1.1">
            <rect id="Fig:densplot_01.border.panel.1.1.1.1" x="44.8" y="42.19" width="231.2" height="191.81" transform="" stroke="rgb(0,0,0)" stroke-dasharray="none" stroke-width="0.75" opacity="1" fill="none" stroke-opacity="1" fill-opacity="0"/>
          </g>
        </g>
        <g id="Fig:densplot_01..1"/>
      </g>
    </g>
  </g>
</svg>