<?xml version="1.0" encoding="ISO8859-1"?>
<svg xmlns="http://www.w3.org/2000/svg" xmlns:xlink="http://www.w3.org/1999/xlink" width="288px" height="252px" viewBox="0 0 288 252" version="1.1" id="Fig:dens">
  <metadata xmlns:gridsvg="http://www.stat.auckland.ac.nz/~paul/R/gridSVG/">
    <gridsvg:generator name="gridSVG" version="1.7-2" time="2020-06-28 14:03:46"/>
    <gridsvg:argument name="name" value="arrayQualityMetrics report for gse/dens.svg"/>
    <gridsvg:argument name="exportCoords" value="none"/>
    <gridsvg:argument name="exportMappings" value="none"/>
    <gridsvg:argument name="exportJS" value="none"/>
    <gridsvg:argument name="res" value="72"/>
    <gridsvg:argument name="prefix" value="Fig:dens"/>
    <gridsvg:argument name="addClasses" value="FALSE"/>
    <gridsvg:argument name="indent" value="TRUE"/>
    <gridsvg:argument name="htmlWrapper" value="FALSE"/>
    <gridsvg:argument name="usePaths" value="none"/>
    <gridsvg:argument name="uniqueNames" value="TRUE"/>
    <gridsvg:separator name="id.sep" value="."/>
    <gridsvg:separator name="gPath.sep" value="::"/>
    <gridsvg:separator name="vpPath.sep" value="::"/>
  </metadata>
  <g transform="translate(0, 252) scale(1, -1)">
    <g id="Fig:densgridSVG" fill="none" stroke="rgb(0,0,0)" stroke-dasharray="none" stroke-width="0.75" font-size="12" font-family="Helvetica, Arial, FreeSans, Liberation Sans, Nimbus Sans L, sans-serif" opacity="1" stroke-linecap="round" stroke-linejoin="round" stroke-miterlimit="10" stroke-opacity="1" fill-opacity="0" font-weight="normal" font-style="normal">
      <g id="Fig:densplot_01.background.1">
        <rect id="Fig:densplot_01.background.1.1" x="0" y="0" width="288" height="252" transform="" fill="none" stroke="none" stroke-opacity="0" fill-opacity="0"/>
      </g>
      <g id="Fig:densplot_01.toplevel.vp.1" font-size="12">
        <g id="Fig:densplot_01.ylab.vp.1">
          <g id="Fig:densplot_01.ylab.1">
            <g id="Fig:densplot_01.ylab.1.1" transform="translate(10.31, 138.09)" stroke-width="0.1">
              <g id="Fig:densplot_01.ylab.1.1.scale" transform="scale(1, -1)">
                <text x="0" y="0" id="Fig:densplot_01.ylab.1.1.text" transform="rotate(-90)" text-anchor="middle" opacity="1" stroke="rgb(0,0,0)" fill="rgb(0,0,0)" stroke-opacity="1" fill-opacity="1" font-size="12" font-weight="normal" font-style="normal">
                  <tspan id="Fig:densplot_01.ylab.1.1.tspan.1" dy="4.31" x="0">Density</tspan>
                </text>
              </g>
            </g>
          </g>
        </g>
        <g id="Fig:densplot_01.figure.vp.1"/>
        <defs>
          <clipPath id="Fig:densplot_01.panel.1.1.vp.1.clipPath">
            <rect x="44.8" y="42.19" width="231.2" height="191.81" fill="none" stroke="none"/>
          </clipPath>
        </defs>
        <g id="Fig:densplot_01.panel.1.1.vp.1" clip-path="url(#Fig:densplot_01.panel.1.1.vp.1.clipPath)"/>
        <g id="Fig:densplot_01.strip.1.1.off.vp.1"/>
        <g id="Fig:densplot_01.strip.left.1.1.off.vp.1">
          <g id="Fig:densplot_01.ticks.left.panel.1.1.1">
            <polyline id="Fig:densplot_01.ticks.left.panel.1.1.1.1" points="44.8,53.96 39.13,53.96" stroke="rgb(0,0,0)" opacity="1" stroke-dasharray="none" stroke-width="0.75" stroke-opacity="1" fill="none"/>
            <polyline id="Fig:densplot_01.ticks.left.panel.1.1.1.2" points="44.8,95.22 39.13,95.22" stroke="rgb(0,0,0)" opacity="1" stroke-dasharray="none" stroke-width="0.75" stroke-opacity="1" fill="none"/>
            <polyline id="Fig:densplot_01.ticks.left.panel.1.1.1.3" points="44.8,136.48 39.13,136.48" stroke="rgb(0,0,0)" opacity="1" stroke-dasharray="none" stroke-width="0.75" stroke-opacity="1" fill="none"/>
            <polyline id="Fig:densplot_01.ticks.left.panel.1.1.1.4" points="44.8,177.74 39.13,177.74" stroke="rgb(0,0,0)" opacity="1" stroke-dasharray="none" stroke-width="0.75" stroke-opacity="1" fill="none"/>
            <polyline id="Fig:densplot_01.ticks.left.panel.1.1.1.5" points="44.8,219 39.13,219" stroke="rgb(0,0,0)" opacity="1" stroke-dasharray="none" stroke-width="0.75" stroke-opacity="1" fill="none"/>
          </g>
          <g id="Fig:densplot_01.ticklabels.left.panel.1.1.1">
            <g id="Fig:densplot_01.ticklabels.left.panel.1.1.1.1" transform="translate(33.47, 53.96)" stroke-width="0.1">
              <g id="Fig:densplot_01.ticklabels.left.panel.1.1.1.1.scale" transform="scale(1, -1)">
                <text x="0" y="0" id="Fig:densplot_01.ticklabels.left.panel.1.1.1.1.text" transform="rotate(-90)" text-anchor="middle" stroke="rgb(0,0,0)" opacity="1" fill="rgb(0,0,0)" stroke-opacity="1" fill-opacity="1" font-size="9.6" font-weight="normal" font-style="normal">
                  <tspan id="Fig:densplot_01.ticklabels.left.panel.1.1.1.1.tspan.1" dy="0" x="0">0.0</tspan>
                </text>
              </g>
            </g>
            <g id="Fig:densplot_01.ticklabels.left.panel.1.1.1.2" transform="translate(33.47, 95.22)" stroke-width="0.1">
              <g id="Fig:densplot_01.ticklabels.left.panel.1.1.1.2.scale" transform="scale(1, -1)">
                <text x="0" y="0" id="Fig:densplot_01.ticklabels.left.panel.1.1.1.2.text" transform="rotate(-90)" text-anchor="middle" stroke="rgb(0,0,0)" opacity="1" fill="rgb(0,0,0)" stroke-opacity="1" fill-opacity="1" font-size="9.6" font-weight="normal" font-style="normal">
                  <tspan id="Fig:densplot_01.ticklabels.left.panel.1.1.1.2.tspan.1" dy="0" x="0">0.2</tspan>
                </text>
              </g>
            </g>
            <g id="Fig:densplot_01.ticklabels.left.panel.1.1.1.3" transform="translate(33.47, 136.48)" stroke-width="0.1">
              <g id="Fig:densplot_01.ticklabels.left.panel.1.1.1.3.scale" transform="scale(1, -1)">
                <text x="0" y="0" id="Fig:densplot_01.ticklabels.left.panel.1.1.1.3.text" transform="rotate(-90)" text-anchor="middle" stroke="rgb(0,0,0)" opacity="1" fill="rgb(0,0,0)" stroke-opacity="1" fill-opacity="1" font-size="9.6" font-weight="normal" font-style="normal">
                  <tspan id="Fig:densplot_01.ticklabels.left.panel.1.1.1.3.tspan.1" dy="0" x="0">0.4</tspan>
                </text>
              </g>
            </g>
            <g id="Fig:densplot_01.ticklabels.left.panel.1.1.1.4" transform="translate(33.47, 177.74)" stroke-width="0.1">
              <g id="Fig:densplot_01.ticklabels.left.panel.1.1.1.4.scale" transform="scale(1, -1)">
                <text x="0" y="0" id="Fig:densplot_01.ticklabels.left.panel.1.1.1.4.text" transform="rotate(-90)" text-anchor="middle" stroke="rgb(0,0,0)" opacity="1" fill="rgb(0,0,0)" stroke-opacity="1" fill-opacity="1" font-size="9.6" font-weight="normal" font-style="normal">
                  <tspan id="Fig:densplot_01.ticklabels.left.panel.1.1.1.4.tspan.1" dy="0" x="0">0.6</tspan>
                </text>
              </g>
            </g>
            <g id="Fig:densplot_01.ticklabels.left.panel.1.1.1.5" transform="translate(33.47, 219)" stroke-width="0.1">
              <g id="Fig:densplot_01.ticklabels.left.panel.1.1.1.5.scale" transform="scale(1, -1)">
                <text x="0" y="0" id="Fig:densplot_01.ticklabels.left.panel.1.1.1.5.text" transform="rotate(-90)" text-anchor="middle" stroke="rgb(0,0,0)" opacity="1" fill="rgb(0,0,0)" stroke-opacity="1" fill-opacity="1" font-size="9.6" font-weight="normal" font-style="normal">
                  <tspan id="Fig:densplot_01.ticklabels.left.panel.1.1.1.5.tspan.1" dy="0" x="0">0.8</tspan>
                </text>
              </g>
            </g>
          </g>
        </g>
        <g id="Fig:densplot_01.panel.1.1.off.vp.1">
          <g id="Fig:densplot_01.ticks.bottom.panel.1.1.1">
            <polyline id="Fig:densplot_01.ticks.bottom.panel.1.1.1.1" points="82.13,42.19 82.13,36.52" stroke="rgb(0,0,0)" opacity="1" stroke-dasharray="none" stroke-width="0.75" stroke-opacity="1" fill="none"/>
            <polyline id="Fig:densplot_01.ticks.bottom.panel.1.1.1.2" points="119.78,42.19 119.78,36.52" stroke="rgb(0,0,0)" opacity="1" stroke-dasharray="none" stroke-width="0.75" stroke-opacity="1" fill="none"/>
            <polyline id="Fig:densplot_01.ticks.bottom.panel.1.1.1.3" points="157.44,42.19 157.44,36.52" stroke="rgb(0,0,0)" opacity="1" stroke-dasharray="none" stroke-width="0.75" stroke-opacity="1" fill="none"/>
            <polyline id="Fig:densplot_01.ticks.bottom.panel.1.1.1.4" points="195.09,42.19 195.09,36.52" stroke="rgb(0,0,0)" opacity="1" stroke-dasharray="none" stroke-width="0.75" stroke-opacity="1" fill="none"/>
            <polyline id="Fig:densplot_01.ticks.bottom.panel.1.1.1.5" points="232.74,42.19 232.74,36.52" stroke="rgb(0,0,0)" opacity="1" stroke-dasharray="none" stroke-width="0.75" stroke-opacity="1" fill="none"/>
            <polyline id="Fig:densplot_01.ticks.bottom.panel.1.1.1.6" points="270.39,42.19 270.39,36.52" stroke="rgb(0,0,0)" opacity="1" stroke-dasharray="none" stroke-width="0.75" stroke-opacity="1" fill="none"/>
          </g>
          <g id="Fig:densplot_01.ticklabels.bottom.panel.1.1.1">
            <g id="Fig:densplot_01.ticklabels.bottom.panel.1.1.1.1" transform="translate(82.13, 30.85)" stroke-width="0.1">
              <g id="Fig:densplot_01.ticklabels.bottom.panel.1.1.1.1.scale" transform="scale(1, -1)">
                <text x="0" y="0" id="Fig:densplot_01.ticklabels.bottom.panel.1.1.1.1.text" text-anchor="middle" stroke="rgb(0,0,0)" opacity="1" fill="rgb(0,0,0)" stroke-opacity="1" fill-opacity="1" font-size="9.6" font-weight="normal" font-style="normal">
                  <tspan id="Fig:densplot_01.ticklabels.bottom.panel.1.1.1.1.tspan.1" dy="7.18" x="0">-2</tspan>
                </text>
              </g>
            </g>
            <g id="Fig:densplot_01.ticklabels.bottom.panel.1.1.1.2" transform="translate(119.78, 30.85)" stroke-width="0.1">
              <g id="Fig:densplot_01.ticklabels.bottom.panel.1.1.1.2.scale" transform="scale(1, -1)">
                <text x="0" y="0" id="Fig:densplot_01.ticklabels.bottom.panel.1.1.1.2.text" text-anchor="middle" stroke="rgb(0,0,0)" opacity="1" fill="rgb(0,0,0)" stroke-opacity="1" fill-opacity="1" font-size="9.6" font-weight="normal" font-style="normal">
                  <tspan id="Fig:densplot_01.ticklabels.bottom.panel.1.1.1.2.tspan.1" dy="7.18" x="0">-1</tspan>
                </text>
              </g>
            </g>
            <g id="Fig:densplot_01.ticklabels.bottom.panel.1.1.1.3" transform="translate(157.44, 30.85)" stroke-width="0.1">
              <g id="Fig:densplot_01.ticklabels.bottom.panel.1.1.1.3.scale" transform="scale(1, -1)">
                <text x="0" y="0" id="Fig:densplot_01.ticklabels.bottom.panel.1.1.1.3.text" text-anchor="middle" stroke="rgb(0,0,0)" opacity="1" fill="rgb(0,0,0)" stroke-opacity="1" fill-opacity="1" font-size="9.6" font-weight="normal" font-style="normal">
                  <tspan id="Fig:densplot_01.ticklabels.bottom.panel.1.1.1.3.tspan.1" dy="7.18" x="0">0</tspan>
                </text>
              </g>
            </g>
            <g id="Fig:densplot_01.ticklabels.bottom.panel.1.1.1.4" transform="translate(195.09, 30.85)" stroke-width="0.1">
              <g id="Fig:densplot_01.ticklabels.bottom.panel.1.1.1.4.scale" transform="scale(1, -1)">
                <text x="0" y="0" id="Fig:densplot_01.ticklabels.bottom.panel.1.1.1.4.text" text-anchor="middle" stroke="rgb(0,0,0)" opacity="1" fill="rgb(0,0,0)" stroke-opacity="1" fill-opacity="1" font-size="9.6" font-weight="normal" font-style="normal">
                  <tspan id="Fig:densplot_01.ticklabels.bottom.panel.1.1.1.4.tspan.1" dy="7.18" x="0">1</tspan>
                </text>
              </g>
            </g>
            <g id="Fig:densplot_01.ticklabels.bottom.panel.1.1.1.5" transform="translate(232.74, 30.85)" stroke-width="0.1">
              <g id="Fig:densplot_01.ticklabels.bottom.panel.1.1.1.5.scale" transform="scale(1, -1)">
                <text x="0" y="0" id="Fig:densplot_01.ticklabels.bottom.panel.1.1.1.5.text" text-anchor="middle" stroke="rgb(0,0,0)" opacity="1" fill="rgb(0,0,0)" stroke-opacity="1" fill-opacity="1" font-size="9.6" font-weight="normal" font-style="normal">
                  <tspan id="Fig:densplot_01.ticklabels.bottom.panel.1.1.1.5.tspan.1" dy="7.18" x="0">2</tspan>
                </text>
              </g>
            </g>
            <g id="Fig:densplot_01.ticklabels.bottom.panel.1.1.1.6" transform="translate(270.39, 30.85)" stroke-width="0.1">
              <g id="Fig:densplot_01.ticklabels.bottom.panel.1.1.1.6.scale" transform="scale(1, -1)">
                <text x="0" y="0" id="Fig:densplot_01.ticklabels.bottom.panel.1.1.1.6.text" text-anchor="middle" stroke="rgb(0,0,0)" opacity="1" fill="rgb(0,0,0)" stroke-opacity="1" fill-opacity="1" font-size="9.6" font-weight="normal" font-style="normal">
                  <tspan id="Fig:densplot_01.ticklabels.bottom.panel.1.1.1.6.tspan.1" dy="7.18" x="0">3</tspan>
                </text>
              </g>
            </g>
          </g>
        </g>
        <defs>
          <clipPath id="Fig:densplot_01.panel.1.1.vp.2.clipPath">
            <rect x="44.8" y="42.19" width="231.2" height="191.81" fill="none" stroke="none"/>
          </clipPath>
        </defs>
        <g id="Fig:densplot_01.panel.1.1.vp.2" clip-path="url(#Fig:densplot_01.panel.1.1.vp.2.clipPath)">
          <g id="Fig:densplot_01.xyplot.lines.group.1.panel.1.1.1">
            <polyline id="Fig:densplot_01.xyplot.lines.group.1.panel.1.1.1.1" points="62.27,53.97 62.66,53.97 63.04,53.98 63.43,53.98 63.81,53.99 64.19,54.01 64.58,54.02 64.96,54.04 65.35,54.07 65.73,54.1 66.12,54.14 66.5,54.2 66.88,54.26 67.27,54.33 67.65,54.42 68.04,54.52 68.42,54.63 68.81,54.76 69.19,54.91 69.58,55.06 69.96,55.23 70.34,55.41 70.73,55.6 71.11,55.79 71.5,55.99 71.88,56.19 72.27,56.39 72.65,56.59 73.03,56.78 73.42,56.96 73.8,57.13 74.19,57.29 74.57,57.44 74.96,57.58 75.34,57.7 75.72,57.81 76.11,57.91 76.49,58 76.88,58.08 77.26,58.15 77.65,58.22 78.03,58.29 78.41,58.36 78.8,58.43 79.18,58.5 79.57,58.58 79.95,58.67 80.34,58.76 80.72,58.86 81.1,58.97 81.49,59.09 81.87,59.21 82.26,59.34 82.64,59.47 83.03,59.61 83.41,59.74 83.8,59.88 84.18,60.01 84.56,60.15 84.95,60.28 85.33,60.41 85.72,60.55 86.1,60.68 86.49,60.81 86.87,60.94 87.25,61.07 87.64,61.2 88.02,61.33 88.41,61.47 88.79,61.6 89.18,61.73 89.56,61.86 89.94,61.99 90.33,62.12 90.71,62.26 91.1,62.39 91.48,62.53 91.87,62.68 92.25,62.84 92.63,63.01 93.02,63.19 93.4,63.39 93.79,63.6 94.17,63.82 94.56,64.06 94.94,64.31 95.32,64.57 95.71,64.83 96.09,65.09 96.48,65.35 96.86,65.6 97.25,65.84 97.63,66.07 98.01,66.29 98.4,66.49 98.78,66.67 99.17,66.84 99.55,67 99.94,67.15 100.32,67.3 100.71,67.45 101.09,67.61 101.47,67.77 101.86,67.94 102.24,68.12 102.63,68.33 103.01,68.55 103.4,68.79 103.78,69.06 104.16,69.35 104.55,69.65 104.93,69.98 105.32,70.33 105.7,70.69 106.09,71.07 106.47,71.47 106.85,71.87 107.24,72.29 107.62,72.71 108.01,73.13 108.39,73.56 108.78,73.99 109.16,74.42 109.54,74.85 109.93,75.28 110.31,75.71 110.7,76.14 111.08,76.57 111.47,77.01 111.85,77.44 112.23,77.89 112.62,78.33 113,78.79 113.39,79.25 113.77,79.72 114.16,80.2 114.54,80.7 114.93,81.2 115.31,81.72 115.69,82.25 116.08,82.8 116.46,83.38 116.85,83.97 117.23,84.59 117.62,85.23 118,85.89 118.38,86.58 118.77,87.28 119.15,88.02 119.54,88.77 119.92,89.55 120.31,90.34 120.69,91.15 121.07,91.97 121.46,92.81 121.84,93.67 122.23,94.53 122.61,95.41 123,96.31 123.38,97.21 123.76,98.13 124.15,99.07 124.53,100.01 124.92,100.97 125.3,101.94 125.69,102.93 126.07,103.93 126.45,104.94 126.84,105.97 127.22,107.02 127.61,108.08 127.99,109.16 128.38,110.25 128.76,111.37 129.14,112.51 129.53,113.66 129.91,114.84 130.3,116.05 130.68,117.27 131.07,118.5 131.45,119.75 131.84,121 132.22,122.26 132.6,123.51 132.99,124.76 133.37,126 133.76,127.23 134.14,128.43 134.53,129.62 134.91,130.8 135.29,131.95 135.68,133.1 136.06,134.23 136.45,135.35 136.83,136.47 137.22,137.58 137.6,138.7 137.98,139.82 138.37,140.93 138.75,142.04 139.14,143.15 139.52,144.25 139.91,145.34 140.29,146.4 140.67,147.44 141.06,148.45 141.44,149.43 141.83,150.36 142.21,151.26 142.6,152.12 142.98,152.93 143.36,153.71 143.75,154.45 144.13,155.16 144.52,155.85 144.9,156.52 145.29,157.18 145.67,157.85 146.05,158.52 146.44,159.2 146.82,159.91 147.21,160.64 147.59,161.41 147.98,162.23 148.36,163.09 148.75,164 149.13,164.99 149.51,166.04 149.9,167.18 150.28,168.43 150.67,169.81 151.05,171.33 151.44,173.01 151.82,174.86 152.2,176.89 152.59,179.11 152.97,181.51 153.36,184.08 153.74,186.8 154.13,189.61 154.51,192.46 154.89,195.26 155.28,197.93 155.66,200.4 156.05,202.59 156.43,204.4 156.82,205.76 157.2,206.59 157.58,206.83 157.97,206.5 158.35,205.62 158.74,204.22 159.12,202.36 159.51,200.1 159.89,197.53 160.27,194.72 160.66,191.78 161.04,188.79 161.43,185.85 161.81,183.01 162.2,180.33 162.58,177.82 162.97,175.52 163.35,173.42 163.73,171.52 164.12,169.81 164.5,168.28 164.89,166.88 165.27,165.58 165.66,164.37 166.04,163.21 166.42,162.09 166.81,160.99 167.19,159.9 167.58,158.8 167.96,157.69 168.35,156.58 168.73,155.44 169.11,154.3 169.5,153.14 169.88,151.98 170.27,150.82 170.65,149.65 171.04,148.49 171.42,147.34 171.8,146.2 172.19,145.08 172.57,143.96 172.96,142.86 173.34,141.77 173.73,140.69 174.11,139.62 174.49,138.56 174.88,137.51 175.26,136.47 175.65,135.44 176.03,134.41 176.42,133.4 176.8,132.4 177.18,131.41 177.57,130.44 177.95,129.5 178.34,128.59 178.72,127.7 179.11,126.83 179.49,125.99 179.88,125.18 180.26,124.38 180.64,123.59 181.03,122.82 181.41,122.05 181.8,121.27 182.18,120.49 182.57,119.69 182.95,118.86 183.33,118.02 183.72,117.14 184.1,116.24 184.49,115.32 184.87,114.37 185.26,113.4 185.64,112.42 186.02,111.43 186.41,110.43 186.79,109.44 187.18,108.45 187.56,107.47 187.95,106.5 188.33,105.55 188.71,104.6 189.1,103.67 189.48,102.74 189.87,101.82 190.25,100.9 190.64,99.98 191.02,99.05 191.4,98.13 191.79,97.21 192.17,96.29 192.56,95.38 192.94,94.48 193.33,93.6 193.71,92.75 194.1,91.92 194.48,91.12 194.86,90.36 195.25,89.63 195.63,88.95 196.02,88.3 196.4,87.68 196.79,87.08 197.17,86.52 197.55,85.97 197.94,85.44 198.32,84.92 198.71,84.4 199.09,83.89 199.48,83.38 199.86,82.86 200.24,82.34 200.63,81.81 201.01,81.28 201.4,80.75 201.78,80.22 202.17,79.69 202.55,79.17 202.93,78.65 203.32,78.14 203.7,77.64 204.09,77.15 204.47,76.67 204.86,76.21 205.24,75.76 205.62,75.32 206.01,74.9 206.39,74.49 206.78,74.09 207.16,73.7 207.55,73.32 207.93,72.96 208.31,72.6 208.7,72.24 209.08,71.9 209.47,71.56 209.85,71.22 210.24,70.89 210.62,70.56 211.01,70.24 211.39,69.92 211.77,69.6 212.16,69.28 212.54,68.96 212.93,68.65 213.31,68.34 213.7,68.04 214.08,67.73 214.46,67.44 214.85,67.15 215.23,66.87 215.62,66.6 216,66.34 216.39,66.09 216.77,65.86 217.15,65.63 217.54,65.42 217.92,65.23 218.31,65.04 218.69,64.87 219.08,64.7 219.46,64.54 219.84,64.39 220.23,64.24 220.61,64.1 221,63.95 221.38,63.81 221.77,63.67 222.15,63.53 222.53,63.4 222.92,63.26 223.3,63.13 223.69,62.99 224.07,62.86 224.46,62.73 224.84,62.6 225.23,62.46 225.61,62.33 225.99,62.19 226.38,62.06 226.76,61.91 227.15,61.77 227.53,61.63 227.92,61.48 228.3,61.33 228.68,61.18 229.07,61.03 229.45,60.88 229.84,60.73 230.22,60.59 230.61,60.45 230.99,60.32 231.37,60.19 231.76,60.07 232.14,59.95 232.53,59.84 232.91,59.74 233.3,59.64 233.68,59.54 234.06,59.44 234.45,59.34 234.83,59.25 235.22,59.15 235.6,59.05 235.99,58.94 236.37,58.84 236.75,58.74 237.14,58.63 237.52,58.53 237.91,58.43 238.29,58.33 238.68,58.23 239.06,58.14 239.44,58.05 239.83,57.97 240.21,57.9 240.6,57.83 240.98,57.76 241.37,57.7 241.75,57.64 242.14,57.58 242.52,57.52 242.9,57.47 243.29,57.41 243.67,57.35 244.06,57.28 244.44,57.21 244.83,57.13 245.21,57.04 245.59,56.95 245.98,56.84 246.36,56.72 246.75,56.59 247.13,56.46 247.52,56.31 247.9,56.16 248.28,56 248.67,55.84 249.05,55.67 249.44,55.51 249.82,55.34 250.21,55.19 250.59,55.04 250.97,54.9 251.36,54.76 251.74,54.64 252.13,54.53 252.51,54.43 252.9,54.35 253.28,54.28 253.66,54.21 254.05,54.16 254.43,54.12 254.82,54.08 255.2,54.05 255.59,54.03 255.97,54.01 256.35,54 256.74,53.99 257.12,53.98 257.51,53.98 257.89,53.97 258.28,53.97 258.66,53.97" stroke-dasharray="none" stroke="rgb(31,120,180)" stroke-width="0.75" opacity="1" stroke-opacity="1" fill="none"/>
          </g>
          <g id="Fig:densplot_01.xyplot.lines.group.2.panel.1.1.1">
            <polyline id="Fig:densplot_01.xyplot.lines.group.2.panel.1.1.1.1" points="61.36,53.97 61.75,53.97 62.14,53.97 62.52,53.97 62.91,53.97 63.3,53.98 63.69,53.99 64.07,53.99 64.46,54 64.85,54.02 65.24,54.04 65.62,54.06 66.01,54.09 66.4,54.12 66.79,54.16 67.18,54.21 67.56,54.27 67.95,54.35 68.34,54.43 68.73,54.52 69.11,54.63 69.5,54.75 69.89,54.88 70.28,55.02 70.66,55.18 71.05,55.34 71.44,55.51 71.83,55.69 72.21,55.87 72.6,56.06 72.99,56.25 73.38,56.43 73.77,56.61 74.15,56.79 74.54,56.96 74.93,57.12 75.32,57.28 75.7,57.43 76.09,57.57 76.48,57.7 76.87,57.83 77.25,57.95 77.64,58.06 78.03,58.18 78.42,58.29 78.81,58.4 79.19,58.51 79.58,58.62 79.97,58.73 80.36,58.84 80.74,58.95 81.13,59.07 81.52,59.18 81.91,59.29 82.29,59.4 82.68,59.51 83.07,59.61 83.46,59.72 83.85,59.82 84.23,59.93 84.62,60.03 85.01,60.13 85.4,60.23 85.78,60.33 86.17,60.43 86.56,60.54 86.95,60.64 87.33,60.75 87.72,60.85 88.11,60.96 88.5,61.07 88.88,61.18 89.27,61.29 89.66,61.41 90.05,61.53 90.44,61.65 90.82,61.78 91.21,61.91 91.6,62.04 91.99,62.18 92.37,62.33 92.76,62.49 93.15,62.65 93.54,62.83 93.92,63.01 94.31,63.2 94.7,63.4 95.09,63.61 95.48,63.83 95.86,64.06 96.25,64.29 96.64,64.53 97.03,64.77 97.41,65.02 97.8,65.27 98.19,65.52 98.58,65.78 98.96,66.03 99.35,66.29 99.74,66.54 100.13,66.8 100.52,67.07 100.9,67.33 101.29,67.6 101.68,67.88 102.07,68.17 102.45,68.47 102.84,68.79 103.23,69.12 103.62,69.48 104,69.85 104.39,70.24 104.78,70.66 105.17,71.11 105.56,71.57 105.94,72.07 106.33,72.59 106.72,73.13 107.11,73.69 107.49,74.27 107.88,74.86 108.27,75.47 108.66,76.09 109.04,76.72 109.43,77.36 109.82,78.01 110.21,78.65 110.59,79.3 110.98,79.95 111.37,80.6 111.76,81.25 112.15,81.9 112.53,82.55 112.92,83.2 113.31,83.85 113.7,84.5 114.08,85.15 114.47,85.8 114.86,86.45 115.25,87.1 115.63,87.75 116.02,88.39 116.41,89.04 116.8,89.69 117.19,90.34 117.57,90.99 117.96,91.65 118.35,92.31 118.74,92.97 119.12,93.65 119.51,94.33 119.9,95.02 120.29,95.73 120.67,96.44 121.06,97.17 121.45,97.91 121.84,98.67 122.23,99.44 122.61,100.21 123,101 123.39,101.8 123.78,102.6 124.16,103.41 124.55,104.23 124.94,105.06 125.33,105.89 125.71,106.74 126.1,107.59 126.49,108.45 126.88,109.32 127.27,110.2 127.65,111.1 128.04,112.01 128.43,112.93 128.82,113.88 129.2,114.85 129.59,115.83 129.98,116.84 130.37,117.87 130.75,118.93 131.14,120.02 131.53,121.14 131.92,122.29 132.3,123.47 132.69,124.67 133.08,125.91 133.47,127.17 133.86,128.45 134.24,129.75 134.63,131.07 135.02,132.4 135.41,133.74 135.79,135.08 136.18,136.42 136.57,137.74 136.96,139.06 137.34,140.36 137.73,141.64 138.12,142.9 138.51,144.13 138.9,145.34 139.28,146.52 139.67,147.67 140.06,148.79 140.45,149.89 140.83,150.96 141.22,152 141.61,153.02 142,154.01 142.38,154.98 142.77,155.94 143.16,156.88 143.55,157.8 143.94,158.71 144.32,159.6 144.71,160.48 145.1,161.35 145.49,162.2 145.87,163.04 146.26,163.86 146.65,164.67 147.04,165.45 147.42,166.22 147.81,166.95 148.2,167.66 148.59,168.35 148.98,169 149.36,169.62 149.75,170.21 150.14,170.76 150.53,171.28 150.91,171.75 151.3,172.18 151.69,172.56 152.08,172.9 152.46,173.19 152.85,173.43 153.24,173.62 153.63,173.76 154.01,173.86 154.4,173.89 154.79,173.88 155.18,173.82 155.57,173.72 155.95,173.57 156.34,173.37 156.73,173.14 157.12,172.87 157.5,172.56 157.89,172.21 158.28,171.83 158.67,171.42 159.05,170.98 159.44,170.52 159.83,170.03 160.22,169.53 160.61,169 160.99,168.45 161.38,167.89 161.77,167.31 162.16,166.71 162.54,166.11 162.93,165.49 163.32,164.86 163.71,164.22 164.09,163.56 164.48,162.88 164.87,162.19 165.26,161.49 165.65,160.76 166.03,160.01 166.42,159.24 166.81,158.44 167.2,157.61 167.58,156.75 167.97,155.86 168.36,154.93 168.75,153.97 169.13,152.98 169.52,151.95 169.91,150.89 170.3,149.8 170.68,148.68 171.07,147.53 171.46,146.36 171.85,145.18 172.24,143.98 172.62,142.78 173.01,141.57 173.4,140.38 173.79,139.19 174.17,138.03 174.56,136.9 174.95,135.79 175.34,134.72 175.72,133.69 176.11,132.7 176.5,131.75 176.89,130.86 177.28,130 177.66,129.19 178.05,128.42 178.44,127.68 178.83,126.98 179.21,126.3 179.6,125.64 179.99,125 180.38,124.36 180.76,123.73 181.15,123.09 181.54,122.43 181.93,121.77 182.32,121.08 182.7,120.36 183.09,119.62 183.48,118.84 183.87,118.02 184.25,117.18 184.64,116.3 185.03,115.4 185.42,114.47 185.8,113.51 186.19,112.53 186.58,111.54 186.97,110.54 187.36,109.53 187.74,108.52 188.13,107.52 188.52,106.52 188.91,105.53 189.29,104.55 189.68,103.6 190.07,102.66 190.46,101.74 190.84,100.84 191.23,99.96 191.62,99.1 192.01,98.27 192.39,97.45 192.78,96.66 193.17,95.89 193.56,95.14 193.95,94.41 194.33,93.7 194.72,93.02 195.11,92.35 195.5,91.71 195.88,91.08 196.27,90.48 196.66,89.9 197.05,89.33 197.43,88.78 197.82,88.24 198.21,87.72 198.6,87.21 198.99,86.72 199.37,86.23 199.76,85.75 200.15,85.27 200.54,84.81 200.92,84.34 201.31,83.88 201.7,83.43 202.09,82.97 202.47,82.52 202.86,82.07 203.25,81.62 203.64,81.17 204.03,80.73 204.41,80.28 204.8,79.83 205.19,79.38 205.58,78.93 205.96,78.49 206.35,78.04 206.74,77.6 207.13,77.16 207.51,76.72 207.9,76.29 208.29,75.86 208.68,75.44 209.07,75.03 209.45,74.62 209.84,74.21 210.23,73.82 210.62,73.43 211,73.05 211.39,72.67 211.78,72.3 212.17,71.94 212.55,71.59 212.94,71.24 213.33,70.9 213.72,70.56 214.1,70.23 214.49,69.91 214.88,69.59 215.27,69.28 215.66,68.98 216.04,68.69 216.43,68.4 216.82,68.12 217.21,67.85 217.59,67.59 217.98,67.33 218.37,67.09 218.76,66.85 219.14,66.62 219.53,66.4 219.92,66.19 220.31,65.99 220.7,65.79 221.08,65.61 221.47,65.43 221.86,65.26 222.25,65.11 222.63,64.97 223.02,64.84 223.41,64.72 223.8,64.61 224.18,64.51 224.57,64.42 224.96,64.34 225.35,64.26 225.74,64.19 226.12,64.12 226.51,64.04 226.9,63.96 227.29,63.88 227.67,63.78 228.06,63.67 228.45,63.54 228.84,63.4 229.22,63.25 229.61,63.08 230,62.9 230.39,62.72 230.78,62.52 231.16,62.32 231.55,62.12 231.94,61.92 232.33,61.72 232.71,61.53 233.1,61.34 233.49,61.16 233.88,60.99 234.26,60.82 234.65,60.67 235.04,60.52 235.43,60.39 235.81,60.26 236.2,60.15 236.59,60.04 236.98,59.93 237.37,59.83 237.75,59.74 238.14,59.65 238.53,59.57 238.92,59.48 239.3,59.4 239.69,59.32 240.08,59.23 240.47,59.14 240.85,59.05 241.24,58.96 241.63,58.86 242.02,58.76 242.41,58.66 242.79,58.54 243.18,58.43 243.57,58.31 243.96,58.18 244.34,58.04 244.73,57.9 245.12,57.76 245.51,57.6 245.89,57.44 246.28,57.27 246.67,57.1 247.06,56.92 247.45,56.74 247.83,56.55 248.22,56.36 248.61,56.17 249,55.98 249.38,55.8 249.77,55.62 250.16,55.44 250.55,55.27 250.93,55.12 251.32,54.97 251.71,54.83 252.1,54.71 252.49,54.59 252.87,54.49 253.26,54.4 253.65,54.32 254.04,54.26 254.42,54.2 254.81,54.15 255.2,54.11 255.59,54.08 255.97,54.05 256.36,54.03 256.75,54.01 257.14,54 257.52,53.99 257.91,53.98 258.3,53.98 258.69,53.97 259.08,53.97 259.46,53.97" stroke-dasharray="none" stroke="rgb(31,120,180)" stroke-width="0.75" opacity="1" stroke-opacity="1" fill="none"/>
          </g>
          <g id="Fig:densplot_01.xyplot.lines.group.3.panel.1.1.1">
            <polyline id="Fig:densplot_01.xyplot.lines.group.3.panel.1.1.1.1" points="61.81,53.97 62.2,53.97 62.58,53.98 62.97,53.98 63.35,53.99 63.74,54 64.13,54.02 64.51,54.04 64.9,54.06 65.28,54.09 65.67,54.13 66.05,54.19 66.44,54.25 66.82,54.33 67.21,54.42 67.6,54.52 67.98,54.65 68.37,54.79 68.75,54.95 69.14,55.13 69.52,55.33 69.91,55.54 70.3,55.77 70.68,56.01 71.07,56.26 71.45,56.51 71.84,56.76 72.22,57.02 72.61,57.27 72.99,57.51 73.38,57.74 73.77,57.95 74.15,58.15 74.54,58.33 74.92,58.5 75.31,58.65 75.69,58.79 76.08,58.91 76.46,59.02 76.85,59.11 77.24,59.2 77.62,59.28 78.01,59.35 78.39,59.42 78.78,59.48 79.16,59.55 79.55,59.62 79.94,59.69 80.32,59.76 80.71,59.83 81.09,59.91 81.48,59.99 81.86,60.07 82.25,60.15 82.63,60.24 83.02,60.32 83.41,60.41 83.79,60.5 84.18,60.59 84.56,60.68 84.95,60.78 85.33,60.87 85.72,60.97 86.11,61.07 86.49,61.17 86.88,61.28 87.26,61.39 87.65,61.51 88.03,61.64 88.42,61.77 88.8,61.91 89.19,62.05 89.58,62.2 89.96,62.37 90.35,62.54 90.73,62.73 91.12,62.93 91.5,63.15 91.89,63.38 92.27,63.63 92.66,63.9 93.05,64.19 93.43,64.49 93.82,64.8 94.2,65.13 94.59,65.47 94.97,65.81 95.36,66.16 95.75,66.51 96.13,66.85 96.52,67.19 96.9,67.52 97.29,67.84 97.67,68.15 98.06,68.45 98.44,68.75 98.83,69.03 99.22,69.32 99.6,69.59 99.99,69.87 100.37,70.14 100.76,70.42 101.14,70.7 101.53,70.97 101.92,71.25 102.3,71.54 102.69,71.82 103.07,72.11 103.46,72.4 103.84,72.69 104.23,72.99 104.61,73.28 105,73.58 105.39,73.88 105.77,74.18 106.16,74.49 106.54,74.79 106.93,75.1 107.31,75.41 107.7,75.72 108.08,76.03 108.47,76.34 108.86,76.66 109.24,76.97 109.63,77.29 110.01,77.61 110.4,77.94 110.78,78.27 111.17,78.61 111.56,78.96 111.94,79.32 112.33,79.7 112.71,80.09 113.1,80.49 113.48,80.92 113.87,81.37 114.25,81.83 114.64,82.31 115.03,82.82 115.41,83.34 115.8,83.89 116.18,84.45 116.57,85.04 116.95,85.64 117.34,86.27 117.73,86.92 118.11,87.59 118.5,88.27 118.88,88.97 119.27,89.68 119.65,90.41 120.04,91.15 120.42,91.91 120.81,92.67 121.2,93.43 121.58,94.21 121.97,94.98 122.35,95.76 122.74,96.54 123.12,97.33 123.51,98.11 123.9,98.9 124.28,99.68 124.67,100.47 125.05,101.27 125.44,102.07 125.82,102.88 126.21,103.69 126.59,104.52 126.98,105.36 127.37,106.22 127.75,107.1 128.14,108.01 128.52,108.93 128.91,109.88 129.29,110.86 129.68,111.87 130.06,112.9 130.45,113.96 130.84,115.05 131.22,116.17 131.61,117.3 131.99,118.45 132.38,119.62 132.76,120.79 133.15,121.97 133.54,123.14 133.92,124.32 134.31,125.48 134.69,126.63 135.08,127.76 135.46,128.87 135.85,129.97 136.23,131.04 136.62,132.08 137.01,133.1 137.39,134.09 137.78,135.06 138.16,135.99 138.55,136.91 138.93,137.79 139.32,138.65 139.71,139.49 140.09,140.3 140.48,141.08 140.86,141.85 141.25,142.6 141.63,143.33 142.02,144.05 142.4,144.77 142.79,145.48 143.18,146.18 143.56,146.9 143.95,147.61 144.33,148.33 144.72,149.06 145.1,149.8 145.49,150.54 145.87,151.29 146.26,152.04 146.65,152.8 147.03,153.56 147.42,154.33 147.8,155.1 148.19,155.9 148.57,156.73 148.96,157.6 149.35,158.53 149.73,159.55 150.12,160.68 150.5,161.97 150.89,163.45 151.27,165.15 151.66,167.09 152.04,169.3 152.43,171.81 152.82,174.6 153.2,177.7 153.59,181.07 153.97,184.69 154.36,188.49 154.74,192.36 155.13,196.22 155.52,199.97 155.9,203.48 156.29,206.66 156.67,209.37 157.06,211.52 157.44,212.93 157.83,213.63 158.21,213.58 158.6,212.8 158.99,211.3 159.37,209.15 159.76,206.42 160.14,203.21 160.53,199.61 160.91,195.76 161.3,191.8 161.68,187.85 162.07,183.98 162.46,180.27 162.84,176.8 163.23,173.59 163.61,170.67 164,168.09 164.38,165.81 164.77,163.8 165.16,162.05 165.54,160.5 165.93,159.15 166.31,157.94 166.7,156.86 167.08,155.88 167.47,154.98 167.85,154.12 168.24,153.29 168.63,152.48 169.01,151.68 169.4,150.88 169.78,150.08 170.17,149.28 170.55,148.47 170.94,147.65 171.33,146.82 171.71,145.99 172.1,145.15 172.48,144.31 172.87,143.47 173.25,142.62 173.64,141.78 174.02,140.94 174.41,140.11 174.8,139.29 175.18,138.47 175.57,137.65 175.95,136.85 176.34,136.05 176.72,135.25 177.11,134.45 177.49,133.64 177.88,132.83 178.27,132 178.65,131.16 179.04,130.29 179.42,129.4 179.81,128.48 180.19,127.54 180.58,126.56 180.97,125.55 181.35,124.52 181.74,123.46 182.12,122.39 182.51,121.3 182.89,120.21 183.28,119.12 183.66,118.04 184.05,116.97 184.44,115.92 184.82,114.9 185.21,113.91 185.59,112.94 185.98,112 186.36,111.09 186.75,110.2 187.14,109.33 187.52,108.48 187.91,107.64 188.29,106.81 188.68,105.98 189.06,105.16 189.45,104.33 189.83,103.49 190.22,102.65 190.61,101.8 190.99,100.95 191.38,100.08 191.76,99.21 192.15,98.34 192.53,97.46 192.92,96.59 193.3,95.71 193.69,94.85 194.08,93.99 194.46,93.14 194.85,92.31 195.23,91.49 195.62,90.68 196,89.89 196.39,89.12 196.78,88.37 197.16,87.63 197.55,86.91 197.93,86.21 198.32,85.53 198.7,84.86 199.09,84.21 199.47,83.57 199.86,82.95 200.25,82.34 200.63,81.75 201.02,81.18 201.4,80.62 201.79,80.08 202.17,79.55 202.56,79.04 202.95,78.55 203.33,78.08 203.72,77.63 204.1,77.19 204.49,76.78 204.87,76.38 205.26,76 205.64,75.63 206.03,75.28 206.42,74.94 206.8,74.6 207.19,74.27 207.57,73.94 207.96,73.61 208.34,73.28 208.73,72.94 209.12,72.6 209.5,72.25 209.89,71.89 210.27,71.53 210.66,71.17 211.04,70.8 211.43,70.44 211.81,70.07 212.2,69.71 212.59,69.36 212.97,69.01 213.36,68.67 213.74,68.35 214.13,68.03 214.51,67.72 214.9,67.42 215.28,67.13 215.67,66.85 216.06,66.57 216.44,66.31 216.83,66.04 217.21,65.79 217.6,65.54 217.98,65.3 218.37,65.07 218.76,64.84 219.14,64.63 219.53,64.42 219.91,64.21 220.3,64.02 220.68,63.83 221.07,63.65 221.45,63.48 221.84,63.31 222.23,63.14 222.61,62.98 223,62.81 223.38,62.65 223.77,62.49 224.15,62.33 224.54,62.17 224.93,62.01 225.31,61.85 225.7,61.69 226.08,61.53 226.47,61.37 226.85,61.21 227.24,61.06 227.62,60.91 228.01,60.77 228.4,60.62 228.78,60.48 229.17,60.35 229.55,60.21 229.94,60.08 230.32,59.95 230.71,59.83 231.09,59.7 231.48,59.58 231.87,59.47 232.25,59.35 232.64,59.24 233.02,59.13 233.41,59.03 233.79,58.94 234.18,58.85 234.57,58.77 234.95,58.7 235.34,58.64 235.72,58.58 236.11,58.54 236.49,58.5 236.88,58.46 237.26,58.43 237.65,58.41 238.04,58.39 238.42,58.37 238.81,58.34 239.19,58.32 239.58,58.29 239.96,58.26 240.35,58.22 240.74,58.18 241.12,58.14 241.51,58.09 241.89,58.03 242.28,57.97 242.66,57.9 243.05,57.83 243.43,57.75 243.82,57.67 244.21,57.58 244.59,57.48 244.98,57.38 245.36,57.27 245.75,57.14 246.13,57.01 246.52,56.88 246.9,56.73 247.29,56.58 247.68,56.41 248.06,56.25 248.45,56.07 248.83,55.9 249.22,55.73 249.6,55.56 249.99,55.39 250.38,55.23 250.76,55.07 251.15,54.93 251.53,54.79 251.92,54.67 252.3,54.56 252.69,54.46 253.07,54.37 253.46,54.3 253.85,54.23 254.23,54.18 254.62,54.13 255,54.09 255.39,54.06 255.77,54.04 256.16,54.02 256.55,54.01 256.93,53.99 257.32,53.99 257.7,53.98 258.09,53.97 258.47,53.97 258.86,53.97" stroke-dasharray="none" stroke="rgb(31,120,180)" stroke-width="0.75" opacity="1" stroke-opacity="1" fill="none"/>
          </g>
          <g id="Fig:densplot_01.xyplot.lines.group.4.panel.1.1.1">
            <polyline id="Fig:densplot_01.xyplot.lines.group.4.panel.1.1.1.1" points="61.88,53.97 62.26,53.97 62.65,53.98 63.03,53.98 63.42,53.99 63.8,54 64.19,54.01 64.58,54.03 64.96,54.06 65.35,54.08 65.73,54.12 66.12,54.17 66.5,54.22 66.89,54.29 67.27,54.36 67.66,54.45 68.04,54.55 68.43,54.67 68.82,54.8 69.2,54.93 69.59,55.08 69.97,55.24 70.36,55.41 70.74,55.58 71.13,55.75 71.51,55.93 71.9,56.1 72.29,56.27 72.67,56.43 73.06,56.58 73.44,56.73 73.83,56.87 74.21,57 74.6,57.13 74.98,57.25 75.37,57.36 75.75,57.47 76.14,57.58 76.53,57.68 76.91,57.79 77.3,57.9 77.68,58.01 78.07,58.13 78.45,58.24 78.84,58.37 79.22,58.49 79.61,58.62 80,58.75 80.38,58.88 80.77,59.01 81.15,59.14 81.54,59.27 81.92,59.39 82.31,59.52 82.69,59.64 83.08,59.76 83.46,59.87 83.85,59.99 84.24,60.1 84.62,60.22 85.01,60.33 85.39,60.45 85.78,60.56 86.16,60.68 86.55,60.8 86.93,60.92 87.32,61.05 87.7,61.17 88.09,61.31 88.48,61.44 88.86,61.58 89.25,61.72 89.63,61.86 90.02,62.01 90.4,62.15 90.79,62.3 91.17,62.46 91.56,62.61 91.95,62.77 92.33,62.94 92.72,63.11 93.1,63.28 93.49,63.46 93.87,63.65 94.26,63.84 94.64,64.04 95.03,64.24 95.41,64.45 95.8,64.66 96.19,64.86 96.57,65.07 96.96,65.27 97.34,65.46 97.73,65.65 98.11,65.83 98.5,66.01 98.88,66.18 99.27,66.34 99.66,66.5 100.04,66.66 100.43,66.82 100.81,66.99 101.2,67.16 101.58,67.35 101.97,67.55 102.35,67.77 102.74,68.01 103.12,68.27 103.51,68.56 103.9,68.86 104.28,69.18 104.67,69.53 105.05,69.89 105.44,70.27 105.82,70.66 106.21,71.07 106.59,71.5 106.98,71.94 107.36,72.4 107.75,72.87 108.14,73.37 108.52,73.88 108.91,74.41 109.29,74.96 109.68,75.53 110.06,76.13 110.45,76.74 110.83,77.38 111.22,78.03 111.61,78.69 111.99,79.36 112.38,80.03 112.76,80.71 113.15,81.38 113.53,82.04 113.92,82.69 114.3,83.33 114.69,83.96 115.07,84.57 115.46,85.16 115.85,85.75 116.23,86.33 116.62,86.9 117,87.47 117.39,88.04 117.77,88.62 118.16,89.21 118.54,89.8 118.93,90.41 119.32,91.03 119.7,91.66 120.09,92.32 120.47,92.99 120.86,93.67 121.24,94.38 121.63,95.11 122.01,95.85 122.4,96.62 122.78,97.41 123.17,98.21 123.56,99.04 123.94,99.89 124.33,100.77 124.71,101.65 125.1,102.56 125.48,103.48 125.87,104.41 126.25,105.35 126.64,106.3 127.03,107.25 127.41,108.2 127.8,109.16 128.18,110.13 128.57,111.09 128.95,112.07 129.34,113.05 129.72,114.05 130.11,115.06 130.49,116.09 130.88,117.14 131.27,118.21 131.65,119.31 132.04,120.43 132.42,121.57 132.81,122.73 133.19,123.9 133.58,125.09 133.96,126.3 134.35,127.51 134.73,128.73 135.12,129.95 135.51,131.19 135.89,132.42 136.28,133.67 136.66,134.92 137.05,136.19 137.43,137.46 137.82,138.74 138.2,140.03 138.59,141.33 138.98,142.64 139.36,143.95 139.75,145.26 140.13,146.59 140.52,147.91 140.9,149.23 141.29,150.56 141.67,151.88 142.06,153.21 142.44,154.54 142.83,155.86 143.22,157.19 143.6,158.53 143.99,159.86 144.37,161.19 144.76,162.51 145.14,163.83 145.53,165.14 145.91,166.43 146.3,167.7 146.69,168.95 147.07,170.16 147.46,171.33 147.84,172.46 148.23,173.54 148.61,174.57 149,175.53 149.38,176.43 149.77,177.25 150.15,178.01 150.54,178.67 150.93,179.25 151.31,179.74 151.7,180.14 152.08,180.45 152.47,180.67 152.85,180.81 153.24,180.87 153.62,180.85 154.01,180.74 154.39,180.58 154.78,180.35 155.17,180.08 155.55,179.76 155.94,179.41 156.32,179.03 156.71,178.62 157.09,178.2 157.48,177.76 157.86,177.31 158.25,176.86 158.64,176.4 159.02,175.94 159.41,175.48 159.79,175.02 160.18,174.57 160.56,174.11 160.95,173.66 161.33,173.21 161.72,172.76 162.1,172.31 162.49,171.86 162.88,171.41 163.26,170.94 163.65,170.47 164.03,169.96 164.42,169.44 164.8,168.88 165.19,168.29 165.57,167.66 165.96,166.99 166.35,166.28 166.73,165.53 167.12,164.74 167.5,163.91 167.89,163.06 168.27,162.19 168.66,161.3 169.04,160.4 169.43,159.49 169.81,158.58 170.2,157.66 170.59,156.74 170.97,155.82 171.36,154.89 171.74,153.94 172.13,152.98 172.51,152 172.9,151 173.28,149.97 173.67,148.9 174.05,147.8 174.44,146.67 174.83,145.5 175.21,144.3 175.6,143.07 175.98,141.82 176.37,140.55 176.75,139.26 177.14,137.97 177.52,136.66 177.91,135.36 178.3,134.06 178.68,132.76 179.07,131.48 179.45,130.2 179.84,128.94 180.22,127.7 180.61,126.47 180.99,125.26 181.38,124.07 181.76,122.9 182.15,121.74 182.54,120.6 182.92,119.48 183.31,118.36 183.69,117.26 184.08,116.16 184.46,115.07 184.85,113.98 185.23,112.89 185.62,111.8 186.01,110.7 186.39,109.61 186.78,108.51 187.16,107.41 187.55,106.32 187.93,105.23 188.32,104.16 188.7,103.11 189.09,102.07 189.47,101.07 189.86,100.09 190.25,99.15 190.63,98.24 191.02,97.37 191.4,96.53 191.79,95.73 192.17,94.96 192.56,94.22 192.94,93.49 193.33,92.79 193.71,92.1 194.1,91.42 194.49,90.74 194.87,90.07 195.26,89.4 195.64,88.73 196.03,88.05 196.41,87.38 196.8,86.71 197.18,86.04 197.57,85.38 197.96,84.72 198.34,84.09 198.73,83.47 199.11,82.86 199.5,82.28 199.88,81.72 200.27,81.19 200.65,80.68 201.04,80.2 201.42,79.74 201.81,79.3 202.2,78.88 202.58,78.47 202.97,78.08 203.35,77.69 203.74,77.3 204.12,76.91 204.51,76.52 204.89,76.12 205.28,75.71 205.67,75.29 206.05,74.86 206.44,74.42 206.82,73.97 207.21,73.52 207.59,73.07 207.98,72.62 208.36,72.18 208.75,71.75 209.13,71.33 209.52,70.93 209.91,70.56 210.29,70.2 210.68,69.86 211.06,69.54 211.45,69.25 211.83,68.97 212.22,68.72 212.6,68.47 212.99,68.25 213.37,68.03 213.76,67.82 214.15,67.62 214.53,67.42 214.92,67.23 215.3,67.04 215.69,66.84 216.07,66.65 216.46,66.46 216.84,66.26 217.23,66.07 217.62,65.87 218,65.68 218.39,65.48 218.77,65.29 219.16,65.1 219.54,64.92 219.93,64.73 220.31,64.56 220.7,64.39 221.08,64.22 221.47,64.05 221.86,63.89 222.24,63.74 222.63,63.58 223.01,63.43 223.4,63.28 223.78,63.13 224.17,62.98 224.55,62.84 224.94,62.7 225.33,62.57 225.71,62.44 226.1,62.32 226.48,62.2 226.87,62.09 227.25,61.99 227.64,61.89 228.02,61.79 228.41,61.69 228.79,61.59 229.18,61.48 229.57,61.37 229.95,61.26 230.34,61.14 230.72,61.01 231.11,60.87 231.49,60.72 231.88,60.57 232.26,60.41 232.65,60.25 233.03,60.08 233.42,59.91 233.81,59.74 234.19,59.58 234.58,59.41 234.96,59.26 235.35,59.11 235.73,58.96 236.12,58.83 236.5,58.7 236.89,58.58 237.28,58.47 237.66,58.36 238.05,58.26 238.43,58.17 238.82,58.08 239.2,58 239.59,57.91 239.97,57.83 240.36,57.75 240.74,57.67 241.13,57.59 241.52,57.5 241.9,57.42 242.29,57.33 242.67,57.24 243.06,57.15 243.44,57.05 243.83,56.95 244.21,56.85 244.6,56.74 244.99,56.62 245.37,56.51 245.76,56.38 246.14,56.26 246.53,56.13 246.91,55.99 247.3,55.85 247.68,55.71 248.07,55.57 248.45,55.44 248.84,55.3 249.23,55.17 249.61,55.04 250,54.92 250.38,54.8 250.77,54.69 251.15,54.59 251.54,54.5 251.92,54.41 252.31,54.34 252.69,54.28 253.08,54.22 253.47,54.17 253.85,54.13 254.24,54.09 254.62,54.07 255.01,54.04 255.39,54.02 255.78,54.01 256.16,54 256.55,53.99 256.94,53.98 257.32,53.98 257.71,53.97 258.09,53.97 258.48,53.97 258.86,53.97" stroke-dasharray="none" stroke="rgb(31,120,180)" stroke-width="0.75" opacity="1" stroke-opacity="1" fill="none"/>
          </g>
          <g id="Fig:densplot_01.xyplot.lines.group.5.panel.1.1.1">
            <polyline id="Fig:densplot_01.xyplot.lines.group.5.panel.1.1.1.1" points="61.79,53.97 62.17,53.97 62.56,53.98 62.94,53.98 63.33,53.99 63.71,54 64.1,54.01 64.48,54.03 64.87,54.06 65.25,54.09 65.64,54.13 66.03,54.18 66.41,54.24 66.8,54.31 67.18,54.4 67.57,54.5 67.95,54.62 68.34,54.76 68.72,54.92 69.11,55.09 69.49,55.28 69.88,55.49 70.26,55.72 70.65,55.95 71.03,56.2 71.42,56.46 71.8,56.72 72.19,56.98 72.57,57.24 72.96,57.5 73.34,57.74 73.73,57.98 74.11,58.2 74.5,58.41 74.88,58.6 75.27,58.78 75.65,58.94 76.04,59.09 76.43,59.22 76.81,59.34 77.2,59.45 77.58,59.54 77.97,59.63 78.35,59.72 78.74,59.8 79.12,59.88 79.51,59.96 79.89,60.04 80.28,60.12 80.66,60.21 81.05,60.29 81.43,60.38 81.82,60.48 82.2,60.57 82.59,60.67 82.97,60.77 83.36,60.87 83.74,60.97 84.13,61.07 84.51,61.17 84.9,61.27 85.28,61.37 85.67,61.47 86.05,61.57 86.44,61.68 86.83,61.79 87.21,61.91 87.6,62.04 87.98,62.17 88.37,62.32 88.75,62.47 89.14,62.64 89.52,62.82 89.91,63.01 90.29,63.2 90.68,63.41 91.06,63.61 91.45,63.83 91.83,64.04 92.22,64.26 92.6,64.47 92.99,64.69 93.37,64.9 93.76,65.12 94.14,65.33 94.53,65.54 94.91,65.74 95.3,65.95 95.68,66.16 96.07,66.37 96.45,66.57 96.84,66.78 97.23,67 97.61,67.21 98,67.44 98.38,67.66 98.77,67.9 99.15,68.15 99.54,68.41 99.92,68.69 100.31,68.98 100.69,69.29 101.08,69.63 101.46,69.98 101.85,70.35 102.23,70.74 102.62,71.15 103,71.57 103.39,72.01 103.77,72.45 104.16,72.9 104.54,73.35 104.93,73.8 105.31,74.24 105.7,74.68 106.08,75.11 106.47,75.53 106.85,75.94 107.24,76.34 107.63,76.73 108.01,77.12 108.4,77.49 108.78,77.86 109.17,78.22 109.55,78.57 109.94,78.92 110.32,79.26 110.71,79.6 111.09,79.93 111.48,80.26 111.86,80.59 112.25,80.92 112.63,81.26 113.02,81.6 113.4,81.96 113.79,82.33 114.17,82.73 114.56,83.15 114.94,83.6 115.33,84.08 115.71,84.6 116.1,85.15 116.48,85.75 116.87,86.38 117.26,87.06 117.64,87.76 118.03,88.5 118.41,89.26 118.8,90.04 119.18,90.83 119.57,91.63 119.95,92.42 120.34,93.21 120.72,93.98 121.11,94.74 121.49,95.47 121.88,96.19 122.26,96.88 122.65,97.56 123.03,98.23 123.42,98.89 123.8,99.54 124.19,100.2 124.57,100.87 124.96,101.55 125.34,102.25 125.73,102.96 126.11,103.7 126.5,104.45 126.88,105.22 127.27,106.01 127.66,106.81 128.04,107.62 128.43,108.44 128.81,109.26 129.2,110.09 129.58,110.93 129.97,111.78 130.35,112.64 130.74,113.52 131.12,114.42 131.51,115.34 131.89,116.28 132.28,117.24 132.66,118.23 133.05,119.24 133.43,120.26 133.82,121.31 134.2,122.36 134.59,123.42 134.97,124.48 135.36,125.54 135.74,126.59 136.13,127.63 136.51,128.66 136.9,129.67 137.28,130.67 137.67,131.66 138.06,132.64 138.44,133.6 138.83,134.56 139.21,135.5 139.6,136.44 139.98,137.37 140.37,138.28 140.75,139.19 141.14,140.09 141.52,140.97 141.91,141.85 142.29,142.72 142.68,143.57 143.06,144.42 143.45,145.26 143.83,146.09 144.22,146.91 144.6,147.73 144.99,148.53 145.37,149.33 145.76,150.12 146.14,150.89 146.53,151.66 146.91,152.41 147.3,153.16 147.68,153.9 148.07,154.65 148.46,155.41 148.84,156.2 149.23,157.04 149.61,157.94 150,158.93 150.38,160.07 150.77,161.37 151.15,162.89 151.54,164.65 151.92,166.69 152.31,169.04 152.69,171.73 153.08,174.78 153.46,178.2 153.85,182.01 154.23,186.12 154.62,190.48 155,194.99 155.39,199.56 155.77,204.06 156.16,208.37 156.54,212.35 156.93,215.84 157.31,218.63 157.7,220.67 158.08,221.88 158.47,222.22 158.86,221.67 159.24,220.24 159.63,217.98 160.01,214.99 160.4,211.31 160.78,207.13 161.17,202.62 161.55,197.92 161.94,193.16 162.32,188.46 162.71,183.92 163.09,179.62 163.48,175.61 163.86,171.99 164.25,168.74 164.63,165.84 165.02,163.28 165.4,161.02 165.79,159.05 166.17,157.31 166.56,155.79 166.94,154.43 167.33,153.22 167.71,152.11 168.1,151.07 168.48,150.08 168.87,149.12 169.26,148.18 169.64,147.24 170.03,146.3 170.41,145.35 170.8,144.38 171.18,143.4 171.57,142.41 171.95,141.41 172.34,140.39 172.72,139.38 173.11,138.35 173.49,137.33 173.88,136.32 174.26,135.3 174.65,134.3 175.03,133.3 175.42,132.32 175.8,131.34 176.19,130.37 176.57,129.41 176.96,128.46 177.34,127.51 177.73,126.57 178.11,125.64 178.5,124.72 178.89,123.79 179.27,122.87 179.66,121.96 180.04,121.04 180.43,120.12 180.81,119.2 181.2,118.28 181.58,117.36 181.97,116.43 182.35,115.51 182.74,114.58 183.12,113.66 183.51,112.74 183.89,111.84 184.28,110.95 184.66,110.08 185.05,109.24 185.43,108.42 185.82,107.64 186.2,106.89 186.59,106.19 186.97,105.52 187.36,104.89 187.74,104.3 188.13,103.75 188.51,103.22 188.9,102.73 189.29,102.26 189.67,101.8 190.06,101.36 190.44,100.92 190.83,100.48 191.21,100.03 191.6,99.58 191.98,99.1 192.37,98.61 192.75,98.09 193.14,97.54 193.52,96.96 193.91,96.34 194.29,95.69 194.68,95 195.06,94.28 195.45,93.52 195.83,92.74 196.22,91.92 196.6,91.09 196.99,90.24 197.37,89.38 197.76,88.52 198.14,87.66 198.53,86.82 198.91,86.01 199.3,85.22 199.69,84.46 200.07,83.75 200.46,83.07 200.84,82.44 201.23,81.85 201.61,81.3 202,80.79 202.38,80.31 202.77,79.86 203.15,79.44 203.54,79.04 203.92,78.66 204.31,78.29 204.69,77.93 205.08,77.58 205.46,77.22 205.85,76.87 206.23,76.52 206.62,76.16 207,75.81 207.39,75.44 207.77,75.08 208.16,74.71 208.54,74.33 208.93,73.95 209.31,73.56 209.7,73.17 210.09,72.78 210.47,72.38 210.86,71.98 211.24,71.57 211.63,71.17 212.01,70.77 212.4,70.38 212.78,69.99 213.17,69.61 213.55,69.24 213.94,68.88 214.32,68.54 214.71,68.22 215.09,67.91 215.48,67.63 215.86,67.35 216.25,67.1 216.63,66.86 217.02,66.64 217.4,66.44 217.79,66.24 218.17,66.06 218.56,65.89 218.94,65.73 219.33,65.57 219.71,65.43 220.1,65.29 220.49,65.16 220.87,65.03 221.26,64.91 221.64,64.8 222.03,64.69 222.41,64.58 222.8,64.48 223.18,64.38 223.57,64.28 223.95,64.18 224.34,64.08 224.72,63.98 225.11,63.87 225.49,63.76 225.88,63.65 226.26,63.53 226.65,63.41 227.03,63.28 227.42,63.14 227.8,63.01 228.19,62.86 228.57,62.72 228.96,62.57 229.34,62.41 229.73,62.26 230.12,62.1 230.5,61.94 230.89,61.78 231.27,61.62 231.66,61.45 232.04,61.29 232.43,61.13 232.81,60.97 233.2,60.81 233.58,60.66 233.97,60.5 234.35,60.36 234.74,60.21 235.12,60.08 235.51,59.95 235.89,59.82 236.28,59.7 236.66,59.59 237.05,59.48 237.43,59.38 237.82,59.29 238.2,59.2 238.59,59.12 238.97,59.05 239.36,58.98 239.74,58.92 240.13,58.86 240.52,58.81 240.9,58.76 241.29,58.72 241.67,58.68 242.06,58.64 242.44,58.61 242.83,58.57 243.21,58.53 243.6,58.49 243.98,58.44 244.37,58.38 244.75,58.31 245.14,58.22 245.52,58.11 245.91,57.99 246.29,57.85 246.68,57.69 247.06,57.51 247.45,57.32 247.83,57.11 248.22,56.89 248.6,56.66 248.99,56.42 249.37,56.18 249.76,55.95 250.14,55.72 250.53,55.5 250.92,55.3 251.3,55.1 251.69,54.93 252.07,54.77 252.46,54.63 252.84,54.51 253.23,54.41 253.61,54.32 254,54.24 254.38,54.18 254.77,54.13 255.15,54.09 255.54,54.06 255.92,54.03 256.31,54.01 256.69,54 257.08,53.99 257.46,53.98 257.85,53.98 258.23,53.97 258.62,53.97" stroke-dasharray="none" stroke="rgb(31,120,180)" stroke-width="0.75" opacity="1" stroke-opacity="1" fill="none"/>
          </g>
          <g id="Fig:densplot_01.xyplot.lines.group.6.panel.1.1.1">
            <polyline id="Fig:densplot_01.xyplot.lines.group.6.panel.1.1.1.1" points="59.59,53.97 59.98,53.97 60.37,53.98 60.77,53.98 61.16,53.99 61.56,54 61.95,54.01 62.35,54.02 62.74,54.04 63.14,54.06 63.53,54.09 63.92,54.12 64.32,54.16 64.71,54.21 65.11,54.27 65.5,54.34 65.9,54.42 66.29,54.51 66.68,54.62 67.08,54.73 67.47,54.86 67.87,55.01 68.26,55.17 68.66,55.35 69.05,55.54 69.45,55.74 69.84,55.95 70.23,56.17 70.63,56.41 71.02,56.64 71.42,56.88 71.81,57.12 72.21,57.36 72.6,57.6 72.99,57.83 73.39,58.05 73.78,58.27 74.18,58.47 74.57,58.66 74.97,58.83 75.36,59 75.76,59.15 76.15,59.29 76.54,59.42 76.94,59.55 77.33,59.66 77.73,59.77 78.12,59.88 78.52,59.98 78.91,60.09 79.3,60.2 79.7,60.32 80.09,60.44 80.49,60.57 80.88,60.71 81.28,60.86 81.67,61.02 82.06,61.19 82.46,61.36 82.85,61.54 83.25,61.73 83.64,61.93 84.04,62.13 84.43,62.33 84.83,62.53 85.22,62.73 85.61,62.93 86.01,63.13 86.4,63.32 86.8,63.52 87.19,63.71 87.59,63.89 87.98,64.07 88.37,64.25 88.77,64.42 89.16,64.6 89.56,64.77 89.95,64.95 90.35,65.12 90.74,65.3 91.14,65.49 91.53,65.68 91.92,65.88 92.32,66.09 92.71,66.31 93.11,66.54 93.5,66.78 93.9,67.04 94.29,67.31 94.68,67.59 95.08,67.88 95.47,68.19 95.87,68.5 96.26,68.82 96.66,69.15 97.05,69.48 97.45,69.82 97.84,70.16 98.23,70.5 98.63,70.85 99.02,71.19 99.42,71.53 99.81,71.88 100.21,72.23 100.6,72.58 100.99,72.94 101.39,73.3 101.78,73.67 102.18,74.05 102.57,74.45 102.97,74.85 103.36,75.27 103.75,75.71 104.15,76.15 104.54,76.62 104.94,77.1 105.33,77.59 105.73,78.1 106.12,78.62 106.52,79.15 106.91,79.69 107.3,80.23 107.7,80.78 108.09,81.34 108.49,81.89 108.88,82.45 109.28,83.01 109.67,83.57 110.06,84.12 110.46,84.68 110.85,85.24 111.25,85.8 111.64,86.36 112.04,86.93 112.43,87.5 112.83,88.08 113.22,88.68 113.61,89.28 114.01,89.9 114.4,90.54 114.8,91.19 115.19,91.86 115.59,92.55 115.98,93.26 116.37,93.99 116.77,94.73 117.16,95.5 117.56,96.28 117.95,97.08 118.35,97.9 118.74,98.72 119.14,99.56 119.53,100.4 119.92,101.25 120.32,102.1 120.71,102.96 121.11,103.81 121.5,104.66 121.9,105.51 122.29,106.35 122.68,107.18 123.08,108 123.47,108.81 123.87,109.62 124.26,110.41 124.66,111.19 125.05,111.96 125.44,112.72 125.84,113.47 126.23,114.2 126.63,114.92 127.02,115.64 127.42,116.34 127.81,117.04 128.21,117.73 128.6,118.41 128.99,119.09 129.39,119.77 129.78,120.45 130.18,121.14 130.57,121.84 130.97,122.55 131.36,123.28 131.75,124.02 132.15,124.79 132.54,125.58 132.94,126.4 133.33,127.24 133.73,128.11 134.12,129.01 134.52,129.95 134.91,130.91 135.3,131.89 135.7,132.9 136.09,133.92 136.49,134.96 136.88,136.01 137.28,137.07 137.67,138.12 138.06,139.17 138.46,140.21 138.85,141.23 139.25,142.22 139.64,143.19 140.04,144.13 140.43,145.03 140.83,145.89 141.22,146.7 141.61,147.47 142.01,148.2 142.4,148.88 142.8,149.51 143.19,150.09 143.59,150.63 143.98,151.11 144.37,151.55 144.77,151.95 145.16,152.31 145.56,152.63 145.95,152.92 146.35,153.16 146.74,153.38 147.14,153.57 147.53,153.74 147.92,153.89 148.32,154.02 148.71,154.13 149.11,154.23 149.5,154.32 149.9,154.41 150.29,154.48 150.68,154.54 151.08,154.6 151.47,154.65 151.87,154.68 152.26,154.7 152.66,154.7 153.05,154.67 153.44,154.63 153.84,154.56 154.23,154.45 154.63,154.31 155.02,154.13 155.42,153.91 155.81,153.66 156.21,153.36 156.6,153.02 156.99,152.65 157.39,152.24 157.78,151.8 158.18,151.32 158.57,150.83 158.97,150.32 159.36,149.8 159.75,149.27 160.15,148.73 160.54,148.21 160.94,147.69 161.33,147.18 161.73,146.7 162.12,146.23 162.52,145.78 162.91,145.35 163.3,144.95 163.7,144.58 164.09,144.23 164.49,143.9 164.88,143.59 165.28,143.3 165.67,143.03 166.06,142.77 166.46,142.52 166.85,142.28 167.25,142.04 167.64,141.81 168.04,141.57 168.43,141.33 168.83,141.09 169.22,140.83 169.61,140.56 170.01,140.27 170.4,139.96 170.8,139.62 171.19,139.26 171.59,138.87 171.98,138.44 172.37,137.96 172.77,137.45 173.16,136.9 173.56,136.3 173.95,135.66 174.35,134.98 174.74,134.25 175.13,133.49 175.53,132.68 175.92,131.85 176.32,130.99 176.71,130.11 177.11,129.21 177.5,128.3 177.9,127.39 178.29,126.49 178.68,125.58 179.08,124.69 179.47,123.82 179.87,122.96 180.26,122.13 180.66,121.31 181.05,120.52 181.44,119.75 181.84,119 182.23,118.27 182.63,117.56 183.02,116.87 183.42,116.19 183.81,115.53 184.21,114.88 184.6,114.25 184.99,113.62 185.39,113.01 185.78,112.4 186.18,111.8 186.57,111.21 186.97,110.63 187.36,110.05 187.75,109.49 188.15,108.92 188.54,108.36 188.94,107.8 189.33,107.24 189.73,106.68 190.12,106.11 190.52,105.54 190.91,104.97 191.3,104.38 191.7,103.78 192.09,103.18 192.49,102.56 192.88,101.93 193.28,101.29 193.67,100.64 194.06,99.98 194.46,99.32 194.85,98.66 195.25,97.99 195.64,97.32 196.04,96.66 196.43,96.01 196.82,95.37 197.22,94.74 197.61,94.13 198.01,93.53 198.4,92.95 198.8,92.39 199.19,91.85 199.59,91.33 199.98,90.82 200.37,90.33 200.77,89.86 201.16,89.4 201.56,88.95 201.95,88.51 202.35,88.07 202.74,87.64 203.13,87.21 203.53,86.78 203.92,86.34 204.32,85.91 204.71,85.47 205.11,85.03 205.5,84.59 205.9,84.14 206.29,83.7 206.68,83.27 207.08,82.84 207.47,82.41 207.87,82 208.26,81.6 208.66,81.22 209.05,80.84 209.44,80.49 209.84,80.15 210.23,79.83 210.63,79.53 211.02,79.24 211.42,78.96 211.81,78.69 212.21,78.43 212.6,78.18 212.99,77.93 213.39,77.68 213.78,77.42 214.18,77.16 214.57,76.9 214.97,76.62 215.36,76.33 215.75,76.03 216.15,75.72 216.54,75.39 216.94,75.05 217.33,74.7 217.73,74.34 218.12,73.98 218.51,73.6 218.91,73.22 219.3,72.84 219.7,72.45 220.09,72.07 220.49,71.68 220.88,71.29 221.28,70.9 221.67,70.52 222.06,70.14 222.46,69.76 222.85,69.39 223.25,69.02 223.64,68.66 224.04,68.31 224.43,67.96 224.82,67.62 225.22,67.29 225.61,66.97 226.01,66.67 226.4,66.37 226.8,66.09 227.19,65.82 227.59,65.58 227.98,65.34 228.37,65.13 228.77,64.93 229.16,64.75 229.56,64.58 229.95,64.42 230.35,64.28 230.74,64.16 231.13,64.04 231.53,63.94 231.92,63.84 232.32,63.75 232.71,63.67 233.11,63.59 233.5,63.51 233.9,63.43 234.29,63.35 234.68,63.27 235.08,63.19 235.47,63.1 235.87,63.01 236.26,62.92 236.66,62.82 237.05,62.72 237.44,62.61 237.84,62.5 238.23,62.38 238.63,62.25 239.02,62.13 239.42,61.99 239.81,61.86 240.21,61.72 240.6,61.57 240.99,61.42 241.39,61.27 241.78,61.12 242.18,60.96 242.57,60.79 242.97,60.63 243.36,60.45 243.75,60.28 244.15,60.09 244.54,59.9 244.94,59.7 245.33,59.5 245.73,59.28 246.12,59.06 246.51,58.83 246.91,58.6 247.3,58.35 247.7,58.11 248.09,57.85 248.49,57.6 248.88,57.34 249.28,57.08 249.67,56.83 250.06,56.58 250.46,56.34 250.85,56.1 251.25,55.88 251.64,55.66 252.04,55.47 252.43,55.28 252.82,55.11 253.22,54.95 253.61,54.81 254.01,54.68 254.4,54.57 254.8,54.47 255.19,54.38 255.59,54.31 255.98,54.24 256.37,54.19 256.77,54.14 257.16,54.11 257.56,54.08 257.95,54.05 258.35,54.03 258.74,54.02 259.13,54 259.53,53.99 259.92,53.99 260.32,53.98 260.71,53.98 261.11,53.97" stroke-dasharray="none" stroke="rgb(31,120,180)" stroke-width="0.75" opacity="1" stroke-opacity="1" fill="none"/>
          </g>
          <g id="Fig:densplot_01.xyplot.lines.group.7.panel.1.1.1">
            <polyline id="Fig:densplot_01.xyplot.lines.group.7.panel.1.1.1.1" points="59.27,53.97 59.66,53.97 60.06,53.98 60.45,53.98 60.85,53.99 61.24,53.99 61.64,54 62.04,54.01 62.43,54.03 62.83,54.05 63.22,54.07 63.62,54.1 64.01,54.13 64.41,54.17 64.8,54.22 65.2,54.27 65.6,54.34 65.99,54.41 66.39,54.5 66.78,54.6 67.18,54.7 67.57,54.83 67.97,54.96 68.36,55.11 68.76,55.26 69.16,55.44 69.55,55.62 69.95,55.81 70.34,56.01 70.74,56.22 71.13,56.43 71.53,56.66 71.92,56.88 72.32,57.11 72.72,57.33 73.11,57.56 73.51,57.78 73.9,58 74.3,58.22 74.69,58.43 75.09,58.63 75.48,58.84 75.88,59.03 76.28,59.22 76.67,59.41 77.07,59.59 77.46,59.77 77.86,59.95 78.25,60.13 78.65,60.3 79.04,60.48 79.44,60.66 79.84,60.84 80.23,61.02 80.63,61.21 81.02,61.4 81.42,61.6 81.81,61.8 82.21,62.01 82.61,62.22 83,62.43 83.4,62.66 83.79,62.88 84.19,63.11 84.58,63.34 84.98,63.58 85.37,63.82 85.77,64.06 86.17,64.3 86.56,64.54 86.96,64.79 87.35,65.03 87.75,65.28 88.14,65.52 88.54,65.77 88.93,66.01 89.33,66.26 89.73,66.51 90.12,66.76 90.52,67.02 90.91,67.27 91.31,67.53 91.7,67.8 92.1,68.06 92.49,68.33 92.89,68.6 93.29,68.88 93.68,69.16 94.08,69.44 94.47,69.72 94.87,70.01 95.26,70.3 95.66,70.59 96.05,70.88 96.45,71.17 96.85,71.47 97.24,71.77 97.64,72.07 98.03,72.38 98.43,72.69 98.82,73 99.22,73.32 99.61,73.65 100.01,73.98 100.41,74.33 100.8,74.68 101.2,75.05 101.59,75.43 101.99,75.81 102.38,76.21 102.78,76.62 103.17,77.04 103.57,77.48 103.97,77.93 104.36,78.39 104.76,78.86 105.15,79.34 105.55,79.83 105.94,80.34 106.34,80.86 106.74,81.38 107.13,81.92 107.53,82.47 107.92,83.03 108.32,83.59 108.71,84.17 109.11,84.76 109.5,85.36 109.9,85.96 110.3,86.58 110.69,87.2 111.09,87.84 111.48,88.48 111.88,89.13 112.27,89.79 112.67,90.46 113.06,91.14 113.46,91.82 113.86,92.51 114.25,93.21 114.65,93.91 115.04,94.61 115.44,95.32 115.83,96.03 116.23,96.74 116.62,97.46 117.02,98.17 117.42,98.88 117.81,99.6 118.21,100.3 118.6,101.01 119,101.72 119.39,102.42 119.79,103.12 120.18,103.81 120.58,104.51 120.98,105.2 121.37,105.89 121.77,106.58 122.16,107.27 122.56,107.95 122.95,108.63 123.35,109.31 123.74,109.99 124.14,110.66 124.54,111.33 124.93,112 125.33,112.66 125.72,113.31 126.12,113.95 126.51,114.59 126.91,115.22 127.3,115.85 127.7,116.46 128.1,117.07 128.49,117.67 128.89,118.26 129.28,118.84 129.68,119.42 130.07,119.99 130.47,120.56 130.86,121.13 131.26,121.69 131.66,122.25 132.05,122.81 132.45,123.37 132.84,123.92 133.24,124.48 133.63,125.03 134.03,125.59 134.43,126.14 134.82,126.69 135.22,127.24 135.61,127.78 136.01,128.32 136.4,128.85 136.8,129.38 137.19,129.9 137.59,130.41 137.99,130.92 138.38,131.42 138.78,131.92 139.17,132.4 139.57,132.88 139.96,133.36 140.36,133.83 140.75,134.29 141.15,134.75 141.55,135.2 141.94,135.65 142.34,136.1 142.73,136.54 143.13,136.97 143.52,137.41 143.92,137.84 144.31,138.27 144.71,138.7 145.11,139.14 145.5,139.58 145.9,140.03 146.29,140.5 146.69,140.99 147.08,141.51 147.48,142.06 147.87,142.65 148.27,143.28 148.67,143.98 149.06,144.75 149.46,145.6 149.85,146.53 150.25,147.55 150.64,148.66 151.04,149.87 151.43,151.17 151.83,152.57 152.23,154.05 152.62,155.6 153.02,157.2 153.41,158.83 153.81,160.45 154.2,162.05 154.6,163.6 154.99,165.04 155.39,166.35 155.79,167.51 156.18,168.48 156.58,169.23 156.97,169.76 157.37,170.05 157.76,170.04 158.16,169.77 158.56,169.25 158.95,168.5 159.35,167.53 159.74,166.36 160.14,165.03 160.53,163.54 160.93,161.95 161.32,160.29 161.72,158.6 162.12,156.9 162.51,155.21 162.91,153.56 163.3,151.97 163.7,150.46 164.09,149.04 164.49,147.69 164.88,146.44 165.28,145.27 165.68,144.18 166.07,143.17 166.47,142.23 166.86,141.35 167.26,140.52 167.65,139.73 168.05,138.97 168.44,138.24 168.84,137.52 169.24,136.83 169.63,136.14 170.03,135.46 170.42,134.78 170.82,134.11 171.21,133.44 171.61,132.78 172,132.13 172.4,131.48 172.8,130.84 173.19,130.22 173.59,129.6 173.98,128.99 174.38,128.4 174.77,127.82 175.17,127.25 175.56,126.69 175.96,126.14 176.36,125.59 176.75,125.05 177.15,124.5 177.54,123.96 177.94,123.42 178.33,122.87 178.73,122.31 179.12,121.74 179.52,121.15 179.92,120.56 180.31,119.95 180.71,119.32 181.1,118.67 181.5,118.01 181.89,117.34 182.29,116.65 182.69,115.95 183.08,115.24 183.48,114.52 183.87,113.8 184.27,113.08 184.66,112.35 185.06,111.63 185.45,110.91 185.85,110.2 186.25,109.5 186.64,108.81 187.04,108.13 187.43,107.47 187.83,106.81 188.22,106.17 188.62,105.54 189.01,104.93 189.41,104.33 189.81,103.74 190.2,103.16 190.6,102.6 190.99,102.04 191.39,101.5 191.78,100.97 192.18,100.44 192.57,99.93 192.97,99.43 193.37,98.94 193.76,98.45 194.16,97.98 194.55,97.51 194.95,97.06 195.34,96.62 195.74,96.18 196.13,95.75 196.53,95.33 196.93,94.92 197.32,94.52 197.72,94.12 198.11,93.72 198.51,93.33 198.9,92.94 199.3,92.55 199.69,92.16 200.09,91.77 200.49,91.38 200.88,90.98 201.28,90.59 201.67,90.19 202.07,89.79 202.46,89.39 202.86,88.99 203.25,88.58 203.65,88.17 204.05,87.76 204.44,87.35 204.84,86.94 205.23,86.52 205.63,86.11 206.02,85.69 206.42,85.26 206.82,84.83 207.21,84.4 207.61,83.96 208,83.52 208.4,83.06 208.79,82.61 209.19,82.14 209.58,81.67 209.98,81.18 210.38,80.7 210.77,80.21 211.17,79.71 211.56,79.22 211.96,78.73 212.35,78.24 212.75,77.76 213.14,77.28 213.54,76.82 213.94,76.37 214.33,75.94 214.73,75.52 215.12,75.12 215.52,74.74 215.91,74.39 216.31,74.05 216.7,73.74 217.1,73.45 217.5,73.17 217.89,72.92 218.29,72.68 218.68,72.47 219.08,72.26 219.47,72.07 219.87,71.89 220.26,71.71 220.66,71.54 221.06,71.37 221.45,71.2 221.85,71.03 222.24,70.85 222.64,70.67 223.03,70.47 223.43,70.27 223.82,70.06 224.22,69.84 224.62,69.6 225.01,69.36 225.41,69.11 225.8,68.86 226.2,68.6 226.59,68.34 226.99,68.08 227.38,67.82 227.78,67.58 228.18,67.34 228.57,67.11 228.97,66.89 229.36,66.68 229.76,66.5 230.15,66.32 230.55,66.16 230.95,66.01 231.34,65.88 231.74,65.75 232.13,65.64 232.53,65.52 232.92,65.42 233.32,65.31 233.71,65.2 234.11,65.1 234.51,64.98 234.9,64.86 235.3,64.74 235.69,64.6 236.09,64.46 236.48,64.32 236.88,64.16 237.27,64 237.67,63.84 238.07,63.67 238.46,63.49 238.86,63.32 239.25,63.14 239.65,62.96 240.04,62.77 240.44,62.59 240.83,62.41 241.23,62.22 241.63,62.03 242.02,61.84 242.42,61.64 242.81,61.44 243.21,61.24 243.6,61.03 244,60.81 244.39,60.59 244.79,60.36 245.19,60.12 245.58,59.87 245.98,59.62 246.37,59.36 246.77,59.09 247.16,58.82 247.56,58.54 247.95,58.26 248.35,57.97 248.75,57.69 249.14,57.41 249.54,57.13 249.93,56.86 250.33,56.6 250.72,56.35 251.12,56.11 251.51,55.88 251.91,55.66 252.31,55.46 252.7,55.27 253.1,55.1 253.49,54.94 253.89,54.8 254.28,54.67 254.68,54.56 255.08,54.46 255.47,54.38 255.87,54.31 256.26,54.24 256.66,54.19 257.05,54.15 257.45,54.11 257.84,54.08 258.24,54.05 258.64,54.03 259.03,54.02 259.43,54 259.82,53.99 260.22,53.99 260.61,53.98 261.01,53.98 261.4,53.97" stroke-dasharray="none" stroke="rgb(31,120,180)" stroke-width="0.75" opacity="1" stroke-opacity="1" fill="none"/>
          </g>
          <g id="Fig:densplot_01.xyplot.lines.group.8.panel.1.1.1">
            <polyline id="Fig:densplot_01.xyplot.lines.group.8.panel.1.1.1.1" points="59,53.97 59.4,53.97 59.79,53.98 60.19,53.98 60.59,53.99 60.98,53.99 61.38,54 61.78,54.01 62.18,54.03 62.57,54.05 62.97,54.07 63.37,54.1 63.76,54.13 64.16,54.17 64.56,54.22 64.95,54.28 65.35,54.34 65.75,54.42 66.14,54.51 66.54,54.61 66.94,54.72 67.33,54.84 67.73,54.99 68.13,55.14 68.53,55.31 68.92,55.5 69.32,55.7 69.72,55.91 70.11,56.14 70.51,56.38 70.91,56.64 71.3,56.9 71.7,57.17 72.1,57.45 72.49,57.73 72.89,58.02 73.29,58.31 73.68,58.59 74.08,58.88 74.48,59.15 74.88,59.43 75.27,59.69 75.67,59.94 76.07,60.19 76.46,60.42 76.86,60.63 77.26,60.84 77.65,61.03 78.05,61.2 78.45,61.37 78.84,61.52 79.24,61.67 79.64,61.8 80.03,61.93 80.43,62.04 80.83,62.16 81.23,62.27 81.62,62.38 82.02,62.49 82.42,62.61 82.81,62.73 83.21,62.85 83.61,62.99 84,63.13 84.4,63.28 84.8,63.44 85.19,63.61 85.59,63.79 85.99,63.99 86.38,64.19 86.78,64.41 87.18,64.63 87.58,64.87 87.97,65.12 88.37,65.37 88.77,65.63 89.16,65.9 89.56,66.17 89.96,66.45 90.35,66.73 90.75,67.02 91.15,67.31 91.54,67.59 91.94,67.89 92.34,68.18 92.73,68.47 93.13,68.77 93.53,69.07 93.93,69.38 94.32,69.68 94.72,69.99 95.12,70.31 95.51,70.63 95.91,70.96 96.31,71.29 96.7,71.63 97.1,71.97 97.5,72.32 97.89,72.67 98.29,73.02 98.69,73.38 99.08,73.74 99.48,74.1 99.88,74.47 100.28,74.83 100.67,75.2 101.07,75.57 101.47,75.94 101.86,76.32 102.26,76.7 102.66,77.09 103.05,77.48 103.45,77.89 103.85,78.31 104.24,78.74 104.64,79.18 105.04,79.64 105.43,80.12 105.83,80.62 106.23,81.13 106.63,81.67 107.02,82.22 107.42,82.8 107.82,83.4 108.21,84.02 108.61,84.65 109.01,85.3 109.4,85.97 109.8,86.66 110.2,87.36 110.59,88.08 110.99,88.8 111.39,89.54 111.78,90.29 112.18,91.05 112.58,91.81 112.98,92.58 113.37,93.35 113.77,94.12 114.17,94.9 114.56,95.67 114.96,96.43 115.36,97.19 115.75,97.94 116.15,98.68 116.55,99.42 116.94,100.14 117.34,100.84 117.74,101.54 118.13,102.22 118.53,102.89 118.93,103.55 119.33,104.2 119.72,104.83 120.12,105.46 120.52,106.08 120.91,106.69 121.31,107.3 121.71,107.9 122.1,108.5 122.5,109.09 122.9,109.68 123.29,110.26 123.69,110.85 124.09,111.43 124.48,112 124.88,112.58 125.28,113.15 125.68,113.72 126.07,114.29 126.47,114.86 126.87,115.43 127.26,116 127.66,116.58 128.06,117.16 128.45,117.74 128.85,118.34 129.25,118.94 129.64,119.55 130.04,120.18 130.44,120.81 130.83,121.46 131.23,122.12 131.63,122.78 132.03,123.46 132.42,124.15 132.82,124.84 133.22,125.54 133.61,126.25 134.01,126.96 134.41,127.66 134.8,128.37 135.2,129.07 135.6,129.76 135.99,130.45 136.39,131.12 136.79,131.78 137.18,132.43 137.58,133.06 137.98,133.68 138.38,134.28 138.77,134.87 139.17,135.44 139.57,136 139.96,136.54 140.36,137.08 140.76,137.6 141.15,138.12 141.55,138.63 141.95,139.14 142.34,139.65 142.74,140.16 143.14,140.67 143.53,141.18 143.93,141.7 144.33,142.21 144.73,142.72 145.12,143.23 145.52,143.73 145.92,144.22 146.31,144.7 146.71,145.16 147.11,145.59 147.5,146 147.9,146.37 148.3,146.71 148.69,147.01 149.09,147.27 149.49,147.48 149.88,147.64 150.28,147.75 150.68,147.82 151.08,147.84 151.47,147.82 151.87,147.76 152.27,147.66 152.66,147.53 153.06,147.37 153.46,147.19 153.85,147 154.25,146.79 154.65,146.58 155.04,146.36 155.44,146.15 155.84,145.94 156.23,145.75 156.63,145.56 157.03,145.38 157.43,145.21 157.82,145.06 158.22,144.92 158.62,144.79 159.01,144.66 159.41,144.55 159.81,144.44 160.2,144.34 160.6,144.23 161,144.14 161.39,144.04 161.79,143.94 162.19,143.83 162.58,143.73 162.98,143.62 163.38,143.51 163.78,143.39 164.17,143.27 164.57,143.14 164.97,143 165.36,142.86 165.76,142.7 166.16,142.54 166.55,142.36 166.95,142.17 167.35,141.97 167.74,141.75 168.14,141.51 168.54,141.25 168.93,140.97 169.33,140.67 169.73,140.35 170.13,140 170.52,139.63 170.92,139.25 171.32,138.84 171.71,138.41 172.11,137.97 172.51,137.51 172.9,137.03 173.3,136.54 173.7,136.04 174.09,135.53 174.49,135.01 174.89,134.47 175.28,133.93 175.68,133.37 176.08,132.8 176.48,132.22 176.87,131.63 177.27,131.02 177.67,130.4 178.06,129.75 178.46,129.09 178.86,128.41 179.25,127.71 179.65,127 180.05,126.26 180.44,125.51 180.84,124.75 181.24,123.97 181.63,123.18 182.03,122.39 182.43,121.59 182.83,120.79 183.22,120 183.62,119.21 184.02,118.42 184.41,117.65 184.81,116.88 185.21,116.14 185.6,115.4 186,114.69 186.4,113.99 186.79,113.31 187.19,112.64 187.59,111.99 187.98,111.35 188.38,110.73 188.78,110.11 189.18,109.51 189.57,108.91 189.97,108.32 190.37,107.73 190.76,107.14 191.16,106.54 191.56,105.94 191.95,105.34 192.35,104.72 192.75,104.1 193.14,103.47 193.54,102.84 193.94,102.19 194.33,101.53 194.73,100.87 195.13,100.21 195.53,99.54 195.92,98.86 196.32,98.19 196.72,97.52 197.11,96.86 197.51,96.2 197.91,95.55 198.3,94.91 198.7,94.29 199.1,93.67 199.49,93.06 199.89,92.47 200.29,91.9 200.68,91.33 201.08,90.78 201.48,90.24 201.88,89.71 202.27,89.19 202.67,88.68 203.07,88.18 203.46,87.69 203.86,87.2 204.26,86.72 204.65,86.25 205.05,85.78 205.45,85.32 205.84,84.86 206.24,84.41 206.64,83.96 207.03,83.52 207.43,83.08 207.83,82.65 208.23,82.22 208.62,81.79 209.02,81.37 209.42,80.95 209.81,80.54 210.21,80.13 210.61,79.72 211,79.32 211.4,78.91 211.8,78.52 212.19,78.12 212.59,77.73 212.99,77.34 213.38,76.96 213.78,76.58 214.18,76.2 214.58,75.83 214.97,75.47 215.37,75.1 215.77,74.75 216.16,74.4 216.56,74.05 216.96,73.71 217.35,73.38 217.75,73.05 218.15,72.73 218.54,72.41 218.94,72.1 219.34,71.8 219.73,71.5 220.13,71.22 220.53,70.93 220.93,70.66 221.32,70.39 221.72,70.12 222.12,69.86 222.51,69.61 222.91,69.37 223.31,69.13 223.7,68.89 224.1,68.66 224.5,68.44 224.89,68.21 225.29,68 225.69,67.78 226.08,67.57 226.48,67.36 226.88,67.16 227.28,66.96 227.67,66.76 228.07,66.56 228.47,66.37 228.86,66.18 229.26,65.99 229.66,65.81 230.05,65.63 230.45,65.46 230.85,65.29 231.24,65.12 231.64,64.95 232.04,64.79 232.43,64.63 232.83,64.48 233.23,64.33 233.63,64.18 234.02,64.03 234.42,63.88 234.82,63.74 235.21,63.6 235.61,63.46 236.01,63.32 236.4,63.18 236.8,63.04 237.2,62.9 237.59,62.76 237.99,62.63 238.39,62.49 238.78,62.35 239.18,62.21 239.58,62.07 239.98,61.93 240.37,61.79 240.77,61.65 241.17,61.51 241.56,61.36 241.96,61.21 242.36,61.06 242.75,60.9 243.15,60.74 243.55,60.57 243.94,60.4 244.34,60.22 244.74,60.03 245.13,59.83 245.53,59.62 245.93,59.4 246.33,59.17 246.72,58.93 247.12,58.69 247.52,58.44 247.91,58.18 248.31,57.92 248.71,57.65 249.1,57.39 249.5,57.12 249.9,56.86 250.29,56.61 250.69,56.36 251.09,56.12 251.48,55.9 251.88,55.69 252.28,55.48 252.68,55.3 253.07,55.12 253.47,54.97 253.87,54.83 254.26,54.7 254.66,54.59 255.06,54.49 255.45,54.4 255.85,54.32 256.25,54.26 256.64,54.21 257.04,54.16 257.44,54.12 257.83,54.09 258.23,54.06 258.63,54.04 259.03,54.02 259.42,54.01 259.82,54 260.22,53.99 260.61,53.98 261.01,53.98 261.41,53.97 261.8,53.97" stroke-dasharray="none" stroke="rgb(31,120,180)" stroke-width="0.75" opacity="1" stroke-opacity="1" fill="none"/>
          </g>
        </g>
        <g id="Fig:densplot_01.panel.1.1.off.vp.2">
          <g id="Fig:densplot_01.border.panel.1.1.1">
            <rect id="Fig:densplot_01.border.panel.1.1.1.1" x="44.8" y="42.19" width="231.2" height="191.81" transform="" stroke="rgb(0,0,0)" stroke-dasharray="none" stroke-width="0.75" opacity="1" fill="none" stroke-opacity="1" fill-opacity="0"/>
          </g>
        </g>
        <g id="Fig:densplot_01..1"/>
      </g>
    </g>
  </g>
</svg>